%TF.GenerationSoftware,KiCad,Pcbnew,5.1.9-73d0e3b20d~88~ubuntu20.04.1*%
%TF.CreationDate,2021-01-16T13:56:57+01:00*%
%TF.ProjectId,Horlogemeter,486f726c-6f67-4656-9d65-7465722e6b69,rev?*%
%TF.SameCoordinates,Original*%
%TF.FileFunction,Legend,Top*%
%TF.FilePolarity,Positive*%
%FSLAX46Y46*%
G04 Gerber Fmt 4.6, Leading zero omitted, Abs format (unit mm)*
G04 Created by KiCad (PCBNEW 5.1.9-73d0e3b20d~88~ubuntu20.04.1) date 2021-01-16 13:56:57*
%MOMM*%
%LPD*%
G01*
G04 APERTURE LIST*
%ADD10C,0.150000*%
%ADD11C,0.120000*%
G04 APERTURE END LIST*
D10*
X92266666Y-117561904D02*
X92761904Y-117561904D01*
X92495238Y-117866666D01*
X92609523Y-117866666D01*
X92685714Y-117904761D01*
X92723809Y-117942857D01*
X92761904Y-118019047D01*
X92761904Y-118209523D01*
X92723809Y-118285714D01*
X92685714Y-118323809D01*
X92609523Y-118361904D01*
X92380952Y-118361904D01*
X92304761Y-118323809D01*
X92266666Y-118285714D01*
X93066666Y-117638095D02*
X93104761Y-117600000D01*
X93180952Y-117561904D01*
X93371428Y-117561904D01*
X93447619Y-117600000D01*
X93485714Y-117638095D01*
X93523809Y-117714285D01*
X93523809Y-117790476D01*
X93485714Y-117904761D01*
X93028571Y-118361904D01*
X93523809Y-118361904D01*
X93866666Y-118361904D02*
X93866666Y-117561904D01*
X94323809Y-118361904D02*
X93980952Y-117904761D01*
X94323809Y-117561904D02*
X93866666Y-118019047D01*
X94666666Y-118361904D02*
X94666666Y-117561904D01*
X95009523Y-118361904D02*
X95009523Y-117942857D01*
X94971428Y-117866666D01*
X94895238Y-117828571D01*
X94780952Y-117828571D01*
X94704761Y-117866666D01*
X94666666Y-117904761D01*
X95314285Y-117828571D02*
X95733333Y-117828571D01*
X95314285Y-118361904D01*
X95733333Y-118361904D01*
X91683333Y-100561904D02*
X91950000Y-101361904D01*
X92216666Y-100561904D01*
X92940476Y-101285714D02*
X92902380Y-101323809D01*
X92788095Y-101361904D01*
X92711904Y-101361904D01*
X92597619Y-101323809D01*
X92521428Y-101247619D01*
X92483333Y-101171428D01*
X92445238Y-101019047D01*
X92445238Y-100904761D01*
X92483333Y-100752380D01*
X92521428Y-100676190D01*
X92597619Y-100600000D01*
X92711904Y-100561904D01*
X92788095Y-100561904D01*
X92902380Y-100600000D01*
X92940476Y-100638095D01*
X93740476Y-101285714D02*
X93702380Y-101323809D01*
X93588095Y-101361904D01*
X93511904Y-101361904D01*
X93397619Y-101323809D01*
X93321428Y-101247619D01*
X93283333Y-101171428D01*
X93245238Y-101019047D01*
X93245238Y-100904761D01*
X93283333Y-100752380D01*
X93321428Y-100676190D01*
X93397619Y-100600000D01*
X93511904Y-100561904D01*
X93588095Y-100561904D01*
X93702380Y-100600000D01*
X93740476Y-100638095D01*
X92988095Y-128750000D02*
X92892857Y-128702380D01*
X92750000Y-128702380D01*
X92607142Y-128750000D01*
X92511904Y-128845238D01*
X92464285Y-128940476D01*
X92416666Y-129130952D01*
X92416666Y-129273809D01*
X92464285Y-129464285D01*
X92511904Y-129559523D01*
X92607142Y-129654761D01*
X92750000Y-129702380D01*
X92845238Y-129702380D01*
X92988095Y-129654761D01*
X93035714Y-129607142D01*
X93035714Y-129273809D01*
X92845238Y-129273809D01*
X93464285Y-129702380D02*
X93464285Y-128702380D01*
X94035714Y-129702380D01*
X94035714Y-128702380D01*
X94511904Y-129702380D02*
X94511904Y-128702380D01*
X94750000Y-128702380D01*
X94892857Y-128750000D01*
X94988095Y-128845238D01*
X95035714Y-128940476D01*
X95083333Y-129130952D01*
X95083333Y-129273809D01*
X95035714Y-129464285D01*
X94988095Y-129559523D01*
X94892857Y-129654761D01*
X94750000Y-129702380D01*
X94511904Y-129702380D01*
X126357142Y-94678571D02*
X126357142Y-93178571D01*
X126357142Y-93892857D02*
X127214285Y-93892857D01*
X127214285Y-94678571D02*
X127214285Y-93178571D01*
X128142857Y-94678571D02*
X128000000Y-94607142D01*
X127928571Y-94535714D01*
X127857142Y-94392857D01*
X127857142Y-93964285D01*
X127928571Y-93821428D01*
X128000000Y-93750000D01*
X128142857Y-93678571D01*
X128357142Y-93678571D01*
X128500000Y-93750000D01*
X128571428Y-93821428D01*
X128642857Y-93964285D01*
X128642857Y-94392857D01*
X128571428Y-94535714D01*
X128500000Y-94607142D01*
X128357142Y-94678571D01*
X128142857Y-94678571D01*
X129285714Y-94678571D02*
X129285714Y-93678571D01*
X129285714Y-93964285D02*
X129357142Y-93821428D01*
X129428571Y-93750000D01*
X129571428Y-93678571D01*
X129714285Y-93678571D01*
X130428571Y-94678571D02*
X130285714Y-94607142D01*
X130214285Y-94464285D01*
X130214285Y-93178571D01*
X131214285Y-94678571D02*
X131071428Y-94607142D01*
X131000000Y-94535714D01*
X130928571Y-94392857D01*
X130928571Y-93964285D01*
X131000000Y-93821428D01*
X131071428Y-93750000D01*
X131214285Y-93678571D01*
X131428571Y-93678571D01*
X131571428Y-93750000D01*
X131642857Y-93821428D01*
X131714285Y-93964285D01*
X131714285Y-94392857D01*
X131642857Y-94535714D01*
X131571428Y-94607142D01*
X131428571Y-94678571D01*
X131214285Y-94678571D01*
X133000000Y-93678571D02*
X133000000Y-94892857D01*
X132928571Y-95035714D01*
X132857142Y-95107142D01*
X132714285Y-95178571D01*
X132500000Y-95178571D01*
X132357142Y-95107142D01*
X133000000Y-94607142D02*
X132857142Y-94678571D01*
X132571428Y-94678571D01*
X132428571Y-94607142D01*
X132357142Y-94535714D01*
X132285714Y-94392857D01*
X132285714Y-93964285D01*
X132357142Y-93821428D01*
X132428571Y-93750000D01*
X132571428Y-93678571D01*
X132857142Y-93678571D01*
X133000000Y-93750000D01*
X134285714Y-94607142D02*
X134142857Y-94678571D01*
X133857142Y-94678571D01*
X133714285Y-94607142D01*
X133642857Y-94464285D01*
X133642857Y-93892857D01*
X133714285Y-93750000D01*
X133857142Y-93678571D01*
X134142857Y-93678571D01*
X134285714Y-93750000D01*
X134357142Y-93892857D01*
X134357142Y-94035714D01*
X133642857Y-94178571D01*
X135000000Y-94678571D02*
X135000000Y-93678571D01*
X135000000Y-93821428D02*
X135071428Y-93750000D01*
X135214285Y-93678571D01*
X135428571Y-93678571D01*
X135571428Y-93750000D01*
X135642857Y-93892857D01*
X135642857Y-94678571D01*
X135642857Y-93892857D02*
X135714285Y-93750000D01*
X135857142Y-93678571D01*
X136071428Y-93678571D01*
X136214285Y-93750000D01*
X136285714Y-93892857D01*
X136285714Y-94678571D01*
X137571428Y-94607142D02*
X137428571Y-94678571D01*
X137142857Y-94678571D01*
X137000000Y-94607142D01*
X136928571Y-94464285D01*
X136928571Y-93892857D01*
X137000000Y-93750000D01*
X137142857Y-93678571D01*
X137428571Y-93678571D01*
X137571428Y-93750000D01*
X137642857Y-93892857D01*
X137642857Y-94035714D01*
X136928571Y-94178571D01*
X138071428Y-93678571D02*
X138642857Y-93678571D01*
X138285714Y-93178571D02*
X138285714Y-94464285D01*
X138357142Y-94607142D01*
X138500000Y-94678571D01*
X138642857Y-94678571D01*
X139714285Y-94607142D02*
X139571428Y-94678571D01*
X139285714Y-94678571D01*
X139142857Y-94607142D01*
X139071428Y-94464285D01*
X139071428Y-93892857D01*
X139142857Y-93750000D01*
X139285714Y-93678571D01*
X139571428Y-93678571D01*
X139714285Y-93750000D01*
X139785714Y-93892857D01*
X139785714Y-94035714D01*
X139071428Y-94178571D01*
X140428571Y-94678571D02*
X140428571Y-93678571D01*
X140428571Y-93964285D02*
X140500000Y-93821428D01*
X140571428Y-93750000D01*
X140714285Y-93678571D01*
X140857142Y-93678571D01*
X131842857Y-96436904D02*
X131842857Y-95903571D01*
X131842857Y-96055952D02*
X131880952Y-95979761D01*
X131919047Y-95941666D01*
X131995238Y-95903571D01*
X132071428Y-95903571D01*
X132642857Y-96398809D02*
X132566666Y-96436904D01*
X132414285Y-96436904D01*
X132338095Y-96398809D01*
X132300000Y-96322619D01*
X132300000Y-96017857D01*
X132338095Y-95941666D01*
X132414285Y-95903571D01*
X132566666Y-95903571D01*
X132642857Y-95941666D01*
X132680952Y-96017857D01*
X132680952Y-96094047D01*
X132300000Y-96170238D01*
X132947619Y-95903571D02*
X133138095Y-96436904D01*
X133328571Y-95903571D01*
X134052380Y-96436904D02*
X133595238Y-96436904D01*
X133823809Y-96436904D02*
X133823809Y-95636904D01*
X133747619Y-95751190D01*
X133671428Y-95827380D01*
X133595238Y-95865476D01*
X134395238Y-96360714D02*
X134433333Y-96398809D01*
X134395238Y-96436904D01*
X134357142Y-96398809D01*
X134395238Y-96360714D01*
X134395238Y-96436904D01*
X134738095Y-95713095D02*
X134776190Y-95675000D01*
X134852380Y-95636904D01*
X135042857Y-95636904D01*
X135119047Y-95675000D01*
X135157142Y-95713095D01*
X135195238Y-95789285D01*
X135195238Y-95865476D01*
X135157142Y-95979761D01*
X134700000Y-96436904D01*
X135195238Y-96436904D01*
X126357142Y-98091666D02*
X126319047Y-98053571D01*
X126242857Y-97939285D01*
X126204761Y-97863095D01*
X126166666Y-97748809D01*
X126128571Y-97558333D01*
X126128571Y-97405952D01*
X126166666Y-97215476D01*
X126204761Y-97101190D01*
X126242857Y-97025000D01*
X126319047Y-96910714D01*
X126357142Y-96872619D01*
X127004761Y-97748809D02*
X126928571Y-97786904D01*
X126776190Y-97786904D01*
X126700000Y-97748809D01*
X126661904Y-97710714D01*
X126623809Y-97634523D01*
X126623809Y-97405952D01*
X126661904Y-97329761D01*
X126700000Y-97291666D01*
X126776190Y-97253571D01*
X126928571Y-97253571D01*
X127004761Y-97291666D01*
X127271428Y-98091666D02*
X127309523Y-98053571D01*
X127385714Y-97939285D01*
X127423809Y-97863095D01*
X127461904Y-97748809D01*
X127500000Y-97558333D01*
X127500000Y-97405952D01*
X127461904Y-97215476D01*
X127423809Y-97101190D01*
X127385714Y-97025000D01*
X127309523Y-96910714D01*
X127271428Y-96872619D01*
X128452380Y-97063095D02*
X128490476Y-97025000D01*
X128566666Y-96986904D01*
X128757142Y-96986904D01*
X128833333Y-97025000D01*
X128871428Y-97063095D01*
X128909523Y-97139285D01*
X128909523Y-97215476D01*
X128871428Y-97329761D01*
X128414285Y-97786904D01*
X128909523Y-97786904D01*
X129404761Y-96986904D02*
X129480952Y-96986904D01*
X129557142Y-97025000D01*
X129595238Y-97063095D01*
X129633333Y-97139285D01*
X129671428Y-97291666D01*
X129671428Y-97482142D01*
X129633333Y-97634523D01*
X129595238Y-97710714D01*
X129557142Y-97748809D01*
X129480952Y-97786904D01*
X129404761Y-97786904D01*
X129328571Y-97748809D01*
X129290476Y-97710714D01*
X129252380Y-97634523D01*
X129214285Y-97482142D01*
X129214285Y-97291666D01*
X129252380Y-97139285D01*
X129290476Y-97063095D01*
X129328571Y-97025000D01*
X129404761Y-96986904D01*
X129976190Y-97063095D02*
X130014285Y-97025000D01*
X130090476Y-96986904D01*
X130280952Y-96986904D01*
X130357142Y-97025000D01*
X130395238Y-97063095D01*
X130433333Y-97139285D01*
X130433333Y-97215476D01*
X130395238Y-97329761D01*
X129938095Y-97786904D01*
X130433333Y-97786904D01*
X131195238Y-97786904D02*
X130738095Y-97786904D01*
X130966666Y-97786904D02*
X130966666Y-96986904D01*
X130890476Y-97101190D01*
X130814285Y-97177380D01*
X130738095Y-97215476D01*
X132376190Y-96986904D02*
X132376190Y-97558333D01*
X132338095Y-97672619D01*
X132261904Y-97748809D01*
X132147619Y-97786904D01*
X132071428Y-97786904D01*
X133061904Y-97748809D02*
X132985714Y-97786904D01*
X132833333Y-97786904D01*
X132757142Y-97748809D01*
X132719047Y-97672619D01*
X132719047Y-97367857D01*
X132757142Y-97291666D01*
X132833333Y-97253571D01*
X132985714Y-97253571D01*
X133061904Y-97291666D01*
X133100000Y-97367857D01*
X133100000Y-97444047D01*
X132719047Y-97520238D01*
X133442857Y-97786904D02*
X133442857Y-97253571D01*
X133442857Y-97405952D02*
X133480952Y-97329761D01*
X133519047Y-97291666D01*
X133595238Y-97253571D01*
X133671428Y-97253571D01*
X134052380Y-97786904D02*
X133976190Y-97748809D01*
X133938095Y-97710714D01*
X133900000Y-97634523D01*
X133900000Y-97405952D01*
X133938095Y-97329761D01*
X133976190Y-97291666D01*
X134052380Y-97253571D01*
X134166666Y-97253571D01*
X134242857Y-97291666D01*
X134280952Y-97329761D01*
X134319047Y-97405952D01*
X134319047Y-97634523D01*
X134280952Y-97710714D01*
X134242857Y-97748809D01*
X134166666Y-97786904D01*
X134052380Y-97786904D01*
X134966666Y-97748809D02*
X134890476Y-97786904D01*
X134738095Y-97786904D01*
X134661904Y-97748809D01*
X134623809Y-97672619D01*
X134623809Y-97367857D01*
X134661904Y-97291666D01*
X134738095Y-97253571D01*
X134890476Y-97253571D01*
X134966666Y-97291666D01*
X135004761Y-97367857D01*
X135004761Y-97444047D01*
X134623809Y-97520238D01*
X135347619Y-97253571D02*
X135347619Y-97786904D01*
X135347619Y-97329761D02*
X135385714Y-97291666D01*
X135461904Y-97253571D01*
X135576190Y-97253571D01*
X135652380Y-97291666D01*
X135690476Y-97367857D01*
X135690476Y-97786904D01*
X136566666Y-96986904D02*
X136833333Y-97786904D01*
X137100000Y-96986904D01*
X137671428Y-97748809D02*
X137595238Y-97786904D01*
X137442857Y-97786904D01*
X137366666Y-97748809D01*
X137328571Y-97672619D01*
X137328571Y-97367857D01*
X137366666Y-97291666D01*
X137442857Y-97253571D01*
X137595238Y-97253571D01*
X137671428Y-97291666D01*
X137709523Y-97367857D01*
X137709523Y-97444047D01*
X137328571Y-97520238D01*
X138052380Y-97253571D02*
X138052380Y-97786904D01*
X138052380Y-97329761D02*
X138090476Y-97291666D01*
X138166666Y-97253571D01*
X138280952Y-97253571D01*
X138357142Y-97291666D01*
X138395238Y-97367857D01*
X138395238Y-97786904D01*
X139080952Y-97748809D02*
X139004761Y-97786904D01*
X138852380Y-97786904D01*
X138776190Y-97748809D01*
X138738095Y-97672619D01*
X138738095Y-97367857D01*
X138776190Y-97291666D01*
X138852380Y-97253571D01*
X139004761Y-97253571D01*
X139080952Y-97291666D01*
X139119047Y-97367857D01*
X139119047Y-97444047D01*
X138738095Y-97520238D01*
X139461904Y-97786904D02*
X139461904Y-97253571D01*
X139461904Y-97329761D02*
X139500000Y-97291666D01*
X139576190Y-97253571D01*
X139690476Y-97253571D01*
X139766666Y-97291666D01*
X139804761Y-97367857D01*
X139804761Y-97786904D01*
X139804761Y-97367857D02*
X139842857Y-97291666D01*
X139919047Y-97253571D01*
X140033333Y-97253571D01*
X140109523Y-97291666D01*
X140147619Y-97367857D01*
X140147619Y-97786904D01*
X140871428Y-97786904D02*
X140871428Y-97367857D01*
X140833333Y-97291666D01*
X140757142Y-97253571D01*
X140604761Y-97253571D01*
X140528571Y-97291666D01*
X140871428Y-97748809D02*
X140795238Y-97786904D01*
X140604761Y-97786904D01*
X140528571Y-97748809D01*
X140490476Y-97672619D01*
X140490476Y-97596428D01*
X140528571Y-97520238D01*
X140604761Y-97482142D01*
X140795238Y-97482142D01*
X140871428Y-97444047D01*
X152690476Y-96202380D02*
X152690476Y-95202380D01*
X153071428Y-95202380D01*
X153166666Y-95250000D01*
X153214285Y-95297619D01*
X153261904Y-95392857D01*
X153261904Y-95535714D01*
X153214285Y-95630952D01*
X153166666Y-95678571D01*
X153071428Y-95726190D01*
X152690476Y-95726190D01*
X154119047Y-95535714D02*
X154119047Y-96202380D01*
X153690476Y-95535714D02*
X153690476Y-96059523D01*
X153738095Y-96154761D01*
X153833333Y-96202380D01*
X153976190Y-96202380D01*
X154071428Y-96154761D01*
X154119047Y-96107142D01*
X154738095Y-96202380D02*
X154642857Y-96154761D01*
X154595238Y-96059523D01*
X154595238Y-95202380D01*
X155071428Y-96154761D02*
X155166666Y-96202380D01*
X155357142Y-96202380D01*
X155452380Y-96154761D01*
X155500000Y-96059523D01*
X155500000Y-96011904D01*
X155452380Y-95916666D01*
X155357142Y-95869047D01*
X155214285Y-95869047D01*
X155119047Y-95821428D01*
X155071428Y-95726190D01*
X155071428Y-95678571D01*
X155119047Y-95583333D01*
X155214285Y-95535714D01*
X155357142Y-95535714D01*
X155452380Y-95583333D01*
X156309523Y-96154761D02*
X156214285Y-96202380D01*
X156023809Y-96202380D01*
X155928571Y-96154761D01*
X155880952Y-96059523D01*
X155880952Y-95678571D01*
X155928571Y-95583333D01*
X156023809Y-95535714D01*
X156214285Y-95535714D01*
X156309523Y-95583333D01*
X156357142Y-95678571D01*
X156357142Y-95773809D01*
X155880952Y-95869047D01*
X144273809Y-96202380D02*
X144273809Y-95202380D01*
X144654761Y-95202380D01*
X144750000Y-95250000D01*
X144797619Y-95297619D01*
X144845238Y-95392857D01*
X144845238Y-95535714D01*
X144797619Y-95630952D01*
X144750000Y-95678571D01*
X144654761Y-95726190D01*
X144273809Y-95726190D01*
X145416666Y-96202380D02*
X145321428Y-96154761D01*
X145273809Y-96107142D01*
X145226190Y-96011904D01*
X145226190Y-95726190D01*
X145273809Y-95630952D01*
X145321428Y-95583333D01*
X145416666Y-95535714D01*
X145559523Y-95535714D01*
X145654761Y-95583333D01*
X145702380Y-95630952D01*
X145750000Y-95726190D01*
X145750000Y-96011904D01*
X145702380Y-96107142D01*
X145654761Y-96154761D01*
X145559523Y-96202380D01*
X145416666Y-96202380D01*
X146083333Y-95535714D02*
X146273809Y-96202380D01*
X146464285Y-95726190D01*
X146654761Y-96202380D01*
X146845238Y-95535714D01*
X147607142Y-96154761D02*
X147511904Y-96202380D01*
X147321428Y-96202380D01*
X147226190Y-96154761D01*
X147178571Y-96059523D01*
X147178571Y-95678571D01*
X147226190Y-95583333D01*
X147321428Y-95535714D01*
X147511904Y-95535714D01*
X147607142Y-95583333D01*
X147654761Y-95678571D01*
X147654761Y-95773809D01*
X147178571Y-95869047D01*
X148083333Y-96202380D02*
X148083333Y-95535714D01*
X148083333Y-95726190D02*
X148130952Y-95630952D01*
X148178571Y-95583333D01*
X148273809Y-95535714D01*
X148369047Y-95535714D01*
X95785714Y-102952380D02*
X95214285Y-102952380D01*
X95500000Y-102952380D02*
X95500000Y-101952380D01*
X95404761Y-102095238D01*
X95309523Y-102190476D01*
X95214285Y-102238095D01*
X99523809Y-110702380D02*
X99523809Y-109702380D01*
X99952380Y-110654761D02*
X100095238Y-110702380D01*
X100333333Y-110702380D01*
X100428571Y-110654761D01*
X100476190Y-110607142D01*
X100523809Y-110511904D01*
X100523809Y-110416666D01*
X100476190Y-110321428D01*
X100428571Y-110273809D01*
X100333333Y-110226190D01*
X100142857Y-110178571D01*
X100047619Y-110130952D01*
X100000000Y-110083333D01*
X99952380Y-109988095D01*
X99952380Y-109892857D01*
X100000000Y-109797619D01*
X100047619Y-109750000D01*
X100142857Y-109702380D01*
X100380952Y-109702380D01*
X100523809Y-109750000D01*
X100952380Y-110702380D02*
X100952380Y-109702380D01*
X101333333Y-109702380D01*
X101428571Y-109750000D01*
X101476190Y-109797619D01*
X101523809Y-109892857D01*
X101523809Y-110035714D01*
X101476190Y-110130952D01*
X101428571Y-110178571D01*
X101333333Y-110226190D01*
X100952380Y-110226190D01*
X136023809Y-91404761D02*
X136166666Y-91452380D01*
X136404761Y-91452380D01*
X136500000Y-91404761D01*
X136547619Y-91357142D01*
X136595238Y-91261904D01*
X136595238Y-91166666D01*
X136547619Y-91071428D01*
X136500000Y-91023809D01*
X136404761Y-90976190D01*
X136214285Y-90928571D01*
X136119047Y-90880952D01*
X136071428Y-90833333D01*
X136023809Y-90738095D01*
X136023809Y-90642857D01*
X136071428Y-90547619D01*
X136119047Y-90500000D01*
X136214285Y-90452380D01*
X136452380Y-90452380D01*
X136595238Y-90500000D01*
X137404761Y-91404761D02*
X137309523Y-91452380D01*
X137119047Y-91452380D01*
X137023809Y-91404761D01*
X136976190Y-91309523D01*
X136976190Y-90928571D01*
X137023809Y-90833333D01*
X137119047Y-90785714D01*
X137309523Y-90785714D01*
X137404761Y-90833333D01*
X137452380Y-90928571D01*
X137452380Y-91023809D01*
X136976190Y-91119047D01*
X137880952Y-91452380D02*
X137880952Y-90785714D01*
X137880952Y-90976190D02*
X137928571Y-90880952D01*
X137976190Y-90833333D01*
X138071428Y-90785714D01*
X138166666Y-90785714D01*
X138500000Y-91452380D02*
X138500000Y-90785714D01*
X138500000Y-90452380D02*
X138452380Y-90500000D01*
X138500000Y-90547619D01*
X138547619Y-90500000D01*
X138500000Y-90452380D01*
X138500000Y-90547619D01*
X139404761Y-91452380D02*
X139404761Y-90928571D01*
X139357142Y-90833333D01*
X139261904Y-90785714D01*
X139071428Y-90785714D01*
X138976190Y-90833333D01*
X139404761Y-91404761D02*
X139309523Y-91452380D01*
X139071428Y-91452380D01*
X138976190Y-91404761D01*
X138928571Y-91309523D01*
X138928571Y-91214285D01*
X138976190Y-91119047D01*
X139071428Y-91071428D01*
X139309523Y-91071428D01*
X139404761Y-91023809D01*
X140023809Y-91452380D02*
X139928571Y-91404761D01*
X139880952Y-91309523D01*
X139880952Y-90452380D01*
X130023809Y-91452380D02*
X130023809Y-90452380D01*
X130452380Y-90547619D02*
X130500000Y-90500000D01*
X130595238Y-90452380D01*
X130833333Y-90452380D01*
X130928571Y-90500000D01*
X130976190Y-90547619D01*
X131023809Y-90642857D01*
X131023809Y-90738095D01*
X130976190Y-90880952D01*
X130404761Y-91452380D01*
X131023809Y-91452380D01*
X132023809Y-91357142D02*
X131976190Y-91404761D01*
X131833333Y-91452380D01*
X131738095Y-91452380D01*
X131595238Y-91404761D01*
X131500000Y-91309523D01*
X131452380Y-91214285D01*
X131404761Y-91023809D01*
X131404761Y-90880952D01*
X131452380Y-90690476D01*
X131500000Y-90595238D01*
X131595238Y-90500000D01*
X131738095Y-90452380D01*
X131833333Y-90452380D01*
X131976190Y-90500000D01*
X132023809Y-90547619D01*
X126523809Y-91452380D02*
X126523809Y-90452380D01*
X126952380Y-90547619D02*
X127000000Y-90500000D01*
X127095238Y-90452380D01*
X127333333Y-90452380D01*
X127428571Y-90500000D01*
X127476190Y-90547619D01*
X127523809Y-90642857D01*
X127523809Y-90738095D01*
X127476190Y-90880952D01*
X126904761Y-91452380D01*
X127523809Y-91452380D01*
X128523809Y-91357142D02*
X128476190Y-91404761D01*
X128333333Y-91452380D01*
X128238095Y-91452380D01*
X128095238Y-91404761D01*
X128000000Y-91309523D01*
X127952380Y-91214285D01*
X127904761Y-91023809D01*
X127904761Y-90880952D01*
X127952380Y-90690476D01*
X128000000Y-90595238D01*
X128095238Y-90500000D01*
X128238095Y-90452380D01*
X128333333Y-90452380D01*
X128476190Y-90500000D01*
X128523809Y-90547619D01*
X140640476Y-80600000D02*
X140564285Y-80561904D01*
X140450000Y-80561904D01*
X140335714Y-80600000D01*
X140259523Y-80676190D01*
X140221428Y-80752380D01*
X140183333Y-80904761D01*
X140183333Y-81019047D01*
X140221428Y-81171428D01*
X140259523Y-81247619D01*
X140335714Y-81323809D01*
X140450000Y-81361904D01*
X140526190Y-81361904D01*
X140640476Y-81323809D01*
X140678571Y-81285714D01*
X140678571Y-81019047D01*
X140526190Y-81019047D01*
X141021428Y-81361904D02*
X141021428Y-80561904D01*
X141478571Y-81361904D01*
X141478571Y-80561904D01*
X141859523Y-81361904D02*
X141859523Y-80561904D01*
X142050000Y-80561904D01*
X142164285Y-80600000D01*
X142240476Y-80676190D01*
X142278571Y-80752380D01*
X142316666Y-80904761D01*
X142316666Y-81019047D01*
X142278571Y-81171428D01*
X142240476Y-81247619D01*
X142164285Y-81323809D01*
X142050000Y-81361904D01*
X141859523Y-81361904D01*
X140716666Y-86611904D02*
X140450000Y-86230952D01*
X140259523Y-86611904D02*
X140259523Y-85811904D01*
X140564285Y-85811904D01*
X140640476Y-85850000D01*
X140678571Y-85888095D01*
X140716666Y-85964285D01*
X140716666Y-86078571D01*
X140678571Y-86154761D01*
X140640476Y-86192857D01*
X140564285Y-86230952D01*
X140259523Y-86230952D01*
X140983333Y-85811904D02*
X141516666Y-86611904D01*
X141516666Y-85811904D02*
X140983333Y-86611904D01*
X141821428Y-86611904D02*
X141821428Y-85811904D01*
X142011904Y-85811904D01*
X142126190Y-85850000D01*
X142202380Y-85926190D01*
X142240476Y-86002380D01*
X142278571Y-86154761D01*
X142278571Y-86269047D01*
X142240476Y-86421428D01*
X142202380Y-86497619D01*
X142126190Y-86573809D01*
X142011904Y-86611904D01*
X141821428Y-86611904D01*
X140240476Y-83311904D02*
X140697619Y-83311904D01*
X140469047Y-84111904D02*
X140469047Y-83311904D01*
X140888095Y-83311904D02*
X141421428Y-84111904D01*
X141421428Y-83311904D02*
X140888095Y-84111904D01*
X141726190Y-84111904D02*
X141726190Y-83311904D01*
X141916666Y-83311904D01*
X142030952Y-83350000D01*
X142107142Y-83426190D01*
X142145238Y-83502380D01*
X142183333Y-83654761D01*
X142183333Y-83769047D01*
X142145238Y-83921428D01*
X142107142Y-83997619D01*
X142030952Y-84073809D01*
X141916666Y-84111904D01*
X141726190Y-84111904D01*
X133890476Y-85850000D02*
X133814285Y-85811904D01*
X133700000Y-85811904D01*
X133585714Y-85850000D01*
X133509523Y-85926190D01*
X133471428Y-86002380D01*
X133433333Y-86154761D01*
X133433333Y-86269047D01*
X133471428Y-86421428D01*
X133509523Y-86497619D01*
X133585714Y-86573809D01*
X133700000Y-86611904D01*
X133776190Y-86611904D01*
X133890476Y-86573809D01*
X133928571Y-86535714D01*
X133928571Y-86269047D01*
X133776190Y-86269047D01*
X134271428Y-86611904D02*
X134271428Y-85811904D01*
X134728571Y-86611904D01*
X134728571Y-85811904D01*
X135109523Y-86611904D02*
X135109523Y-85811904D01*
X135300000Y-85811904D01*
X135414285Y-85850000D01*
X135490476Y-85926190D01*
X135528571Y-86002380D01*
X135566666Y-86154761D01*
X135566666Y-86269047D01*
X135528571Y-86421428D01*
X135490476Y-86497619D01*
X135414285Y-86573809D01*
X135300000Y-86611904D01*
X135109523Y-86611904D01*
X133528571Y-84073809D02*
X133642857Y-84111904D01*
X133833333Y-84111904D01*
X133909523Y-84073809D01*
X133947619Y-84035714D01*
X133985714Y-83959523D01*
X133985714Y-83883333D01*
X133947619Y-83807142D01*
X133909523Y-83769047D01*
X133833333Y-83730952D01*
X133680952Y-83692857D01*
X133604761Y-83654761D01*
X133566666Y-83616666D01*
X133528571Y-83540476D01*
X133528571Y-83464285D01*
X133566666Y-83388095D01*
X133604761Y-83350000D01*
X133680952Y-83311904D01*
X133871428Y-83311904D01*
X133985714Y-83350000D01*
X134328571Y-84111904D02*
X134328571Y-83311904D01*
X134519047Y-83311904D01*
X134633333Y-83350000D01*
X134709523Y-83426190D01*
X134747619Y-83502380D01*
X134785714Y-83654761D01*
X134785714Y-83769047D01*
X134747619Y-83921428D01*
X134709523Y-83997619D01*
X134633333Y-84073809D01*
X134519047Y-84111904D01*
X134328571Y-84111904D01*
X135090476Y-83883333D02*
X135471428Y-83883333D01*
X135014285Y-84111904D02*
X135280952Y-83311904D01*
X135547619Y-84111904D01*
X133547619Y-81573809D02*
X133661904Y-81611904D01*
X133852380Y-81611904D01*
X133928571Y-81573809D01*
X133966666Y-81535714D01*
X134004761Y-81459523D01*
X134004761Y-81383333D01*
X133966666Y-81307142D01*
X133928571Y-81269047D01*
X133852380Y-81230952D01*
X133700000Y-81192857D01*
X133623809Y-81154761D01*
X133585714Y-81116666D01*
X133547619Y-81040476D01*
X133547619Y-80964285D01*
X133585714Y-80888095D01*
X133623809Y-80850000D01*
X133700000Y-80811904D01*
X133890476Y-80811904D01*
X134004761Y-80850000D01*
X134804761Y-81535714D02*
X134766666Y-81573809D01*
X134652380Y-81611904D01*
X134576190Y-81611904D01*
X134461904Y-81573809D01*
X134385714Y-81497619D01*
X134347619Y-81421428D01*
X134309523Y-81269047D01*
X134309523Y-81154761D01*
X134347619Y-81002380D01*
X134385714Y-80926190D01*
X134461904Y-80850000D01*
X134576190Y-80811904D01*
X134652380Y-80811904D01*
X134766666Y-80850000D01*
X134804761Y-80888095D01*
X135528571Y-81611904D02*
X135147619Y-81611904D01*
X135147619Y-80811904D01*
X133433333Y-78061904D02*
X133700000Y-78861904D01*
X133966666Y-78061904D01*
X134690476Y-78785714D02*
X134652380Y-78823809D01*
X134538095Y-78861904D01*
X134461904Y-78861904D01*
X134347619Y-78823809D01*
X134271428Y-78747619D01*
X134233333Y-78671428D01*
X134195238Y-78519047D01*
X134195238Y-78404761D01*
X134233333Y-78252380D01*
X134271428Y-78176190D01*
X134347619Y-78100000D01*
X134461904Y-78061904D01*
X134538095Y-78061904D01*
X134652380Y-78100000D01*
X134690476Y-78138095D01*
X135490476Y-78785714D02*
X135452380Y-78823809D01*
X135338095Y-78861904D01*
X135261904Y-78861904D01*
X135147619Y-78823809D01*
X135071428Y-78747619D01*
X135033333Y-78671428D01*
X134995238Y-78519047D01*
X134995238Y-78404761D01*
X135033333Y-78252380D01*
X135071428Y-78176190D01*
X135147619Y-78100000D01*
X135261904Y-78061904D01*
X135338095Y-78061904D01*
X135452380Y-78100000D01*
X135490476Y-78138095D01*
X144392857Y-134452380D02*
X144392857Y-133452380D01*
X144392857Y-133928571D02*
X144964285Y-133928571D01*
X144964285Y-134452380D02*
X144964285Y-133452380D01*
X145821428Y-134404761D02*
X145726190Y-134452380D01*
X145535714Y-134452380D01*
X145440476Y-134404761D01*
X145392857Y-134309523D01*
X145392857Y-133928571D01*
X145440476Y-133833333D01*
X145535714Y-133785714D01*
X145726190Y-133785714D01*
X145821428Y-133833333D01*
X145869047Y-133928571D01*
X145869047Y-134023809D01*
X145392857Y-134119047D01*
X146726190Y-134452380D02*
X146726190Y-133928571D01*
X146678571Y-133833333D01*
X146583333Y-133785714D01*
X146392857Y-133785714D01*
X146297619Y-133833333D01*
X146726190Y-134404761D02*
X146630952Y-134452380D01*
X146392857Y-134452380D01*
X146297619Y-134404761D01*
X146250000Y-134309523D01*
X146250000Y-134214285D01*
X146297619Y-134119047D01*
X146392857Y-134071428D01*
X146630952Y-134071428D01*
X146726190Y-134023809D01*
X147630952Y-134452380D02*
X147630952Y-133452380D01*
X147630952Y-134404761D02*
X147535714Y-134452380D01*
X147345238Y-134452380D01*
X147250000Y-134404761D01*
X147202380Y-134357142D01*
X147154761Y-134261904D01*
X147154761Y-133976190D01*
X147202380Y-133880952D01*
X147250000Y-133833333D01*
X147345238Y-133785714D01*
X147535714Y-133785714D01*
X147630952Y-133833333D01*
X148107142Y-133785714D02*
X148107142Y-134785714D01*
X148107142Y-133833333D02*
X148202380Y-133785714D01*
X148392857Y-133785714D01*
X148488095Y-133833333D01*
X148535714Y-133880952D01*
X148583333Y-133976190D01*
X148583333Y-134261904D01*
X148535714Y-134357142D01*
X148488095Y-134404761D01*
X148392857Y-134452380D01*
X148202380Y-134452380D01*
X148107142Y-134404761D01*
X149011904Y-134452380D02*
X149011904Y-133452380D01*
X149440476Y-134452380D02*
X149440476Y-133928571D01*
X149392857Y-133833333D01*
X149297619Y-133785714D01*
X149154761Y-133785714D01*
X149059523Y-133833333D01*
X149011904Y-133880952D01*
X150059523Y-134452380D02*
X149964285Y-134404761D01*
X149916666Y-134357142D01*
X149869047Y-134261904D01*
X149869047Y-133976190D01*
X149916666Y-133880952D01*
X149964285Y-133833333D01*
X150059523Y-133785714D01*
X150202380Y-133785714D01*
X150297619Y-133833333D01*
X150345238Y-133880952D01*
X150392857Y-133976190D01*
X150392857Y-134261904D01*
X150345238Y-134357142D01*
X150297619Y-134404761D01*
X150202380Y-134452380D01*
X150059523Y-134452380D01*
X150821428Y-133785714D02*
X150821428Y-134452380D01*
X150821428Y-133880952D02*
X150869047Y-133833333D01*
X150964285Y-133785714D01*
X151107142Y-133785714D01*
X151202380Y-133833333D01*
X151250000Y-133928571D01*
X151250000Y-134452380D01*
X152107142Y-134404761D02*
X152011904Y-134452380D01*
X151821428Y-134452380D01*
X151726190Y-134404761D01*
X151678571Y-134309523D01*
X151678571Y-133928571D01*
X151726190Y-133833333D01*
X151821428Y-133785714D01*
X152011904Y-133785714D01*
X152107142Y-133833333D01*
X152154761Y-133928571D01*
X152154761Y-134023809D01*
X151678571Y-134119047D01*
X85619047Y-96571428D02*
X86380952Y-96571428D01*
X86000000Y-96952380D02*
X86000000Y-96190476D01*
X86452380Y-93321428D02*
X86452380Y-93892857D01*
X86452380Y-93607142D02*
X85452380Y-93607142D01*
X85595238Y-93702380D01*
X85690476Y-93797619D01*
X85738095Y-93892857D01*
X85547619Y-92940476D02*
X85500000Y-92892857D01*
X85452380Y-92797619D01*
X85452380Y-92559523D01*
X85500000Y-92464285D01*
X85547619Y-92416666D01*
X85642857Y-92369047D01*
X85738095Y-92369047D01*
X85880952Y-92416666D01*
X86452380Y-92988095D01*
X86452380Y-92369047D01*
X85785714Y-92035714D02*
X86452380Y-91797619D01*
X85785714Y-91559523D01*
X87678571Y-121452380D02*
X87345238Y-120976190D01*
X87107142Y-121452380D02*
X87107142Y-120452380D01*
X87488095Y-120452380D01*
X87583333Y-120500000D01*
X87630952Y-120547619D01*
X87678571Y-120642857D01*
X87678571Y-120785714D01*
X87630952Y-120880952D01*
X87583333Y-120928571D01*
X87488095Y-120976190D01*
X87107142Y-120976190D01*
X87964285Y-120452380D02*
X88535714Y-120452380D01*
X88250000Y-121452380D02*
X88250000Y-120452380D01*
X89440476Y-121357142D02*
X89392857Y-121404761D01*
X89250000Y-121452380D01*
X89154761Y-121452380D01*
X89011904Y-121404761D01*
X88916666Y-121309523D01*
X88869047Y-121214285D01*
X88821428Y-121023809D01*
X88821428Y-120880952D01*
X88869047Y-120690476D01*
X88916666Y-120595238D01*
X89011904Y-120500000D01*
X89154761Y-120452380D01*
X89250000Y-120452380D01*
X89392857Y-120500000D01*
X89440476Y-120547619D01*
X100964285Y-134452380D02*
X100964285Y-133452380D01*
X101345238Y-133452380D01*
X101440476Y-133500000D01*
X101488095Y-133547619D01*
X101535714Y-133642857D01*
X101535714Y-133785714D01*
X101488095Y-133880952D01*
X101440476Y-133928571D01*
X101345238Y-133976190D01*
X100964285Y-133976190D01*
X101964285Y-134452380D02*
X101964285Y-133785714D01*
X101964285Y-133452380D02*
X101916666Y-133500000D01*
X101964285Y-133547619D01*
X102011904Y-133500000D01*
X101964285Y-133452380D01*
X101964285Y-133547619D01*
X102821428Y-134404761D02*
X102726190Y-134452380D01*
X102535714Y-134452380D01*
X102440476Y-134404761D01*
X102392857Y-134309523D01*
X102392857Y-133928571D01*
X102440476Y-133833333D01*
X102535714Y-133785714D01*
X102726190Y-133785714D01*
X102821428Y-133833333D01*
X102869047Y-133928571D01*
X102869047Y-134023809D01*
X102392857Y-134119047D01*
X103202380Y-133785714D02*
X103726190Y-133785714D01*
X103202380Y-134452380D01*
X103726190Y-134452380D01*
X104250000Y-134452380D02*
X104154761Y-134404761D01*
X104107142Y-134357142D01*
X104059523Y-134261904D01*
X104059523Y-133976190D01*
X104107142Y-133880952D01*
X104154761Y-133833333D01*
X104250000Y-133785714D01*
X104392857Y-133785714D01*
X104488095Y-133833333D01*
X104535714Y-133880952D01*
X104583333Y-133976190D01*
X104583333Y-134261904D01*
X104535714Y-134357142D01*
X104488095Y-134404761D01*
X104392857Y-134452380D01*
X104250000Y-134452380D01*
X165500000Y-104702380D02*
X165452380Y-104797619D01*
X165452380Y-104940476D01*
X165500000Y-105083333D01*
X165595238Y-105178571D01*
X165690476Y-105226190D01*
X165880952Y-105273809D01*
X166023809Y-105273809D01*
X166214285Y-105226190D01*
X166309523Y-105178571D01*
X166404761Y-105083333D01*
X166452380Y-104940476D01*
X166452380Y-104845238D01*
X166404761Y-104702380D01*
X166357142Y-104654761D01*
X166023809Y-104654761D01*
X166023809Y-104845238D01*
X166452380Y-103797619D02*
X165928571Y-103797619D01*
X165833333Y-103845238D01*
X165785714Y-103940476D01*
X165785714Y-104130952D01*
X165833333Y-104226190D01*
X166404761Y-103797619D02*
X166452380Y-103892857D01*
X166452380Y-104130952D01*
X166404761Y-104226190D01*
X166309523Y-104273809D01*
X166214285Y-104273809D01*
X166119047Y-104226190D01*
X166071428Y-104130952D01*
X166071428Y-103892857D01*
X166023809Y-103797619D01*
X166452380Y-103321428D02*
X165785714Y-103321428D01*
X165452380Y-103321428D02*
X165500000Y-103369047D01*
X165547619Y-103321428D01*
X165500000Y-103273809D01*
X165452380Y-103321428D01*
X165547619Y-103321428D01*
X165785714Y-102845238D02*
X166452380Y-102845238D01*
X165880952Y-102845238D02*
X165833333Y-102797619D01*
X165785714Y-102702380D01*
X165785714Y-102559523D01*
X165833333Y-102464285D01*
X165928571Y-102416666D01*
X166452380Y-102416666D01*
X165785714Y-101178571D02*
X166785714Y-101178571D01*
X165833333Y-101178571D02*
X165785714Y-101083333D01*
X165785714Y-100892857D01*
X165833333Y-100797619D01*
X165880952Y-100750000D01*
X165976190Y-100702380D01*
X166261904Y-100702380D01*
X166357142Y-100750000D01*
X166404761Y-100797619D01*
X166452380Y-100892857D01*
X166452380Y-101083333D01*
X166404761Y-101178571D01*
X166452380Y-100130952D02*
X166404761Y-100226190D01*
X166357142Y-100273809D01*
X166261904Y-100321428D01*
X165976190Y-100321428D01*
X165880952Y-100273809D01*
X165833333Y-100226190D01*
X165785714Y-100130952D01*
X165785714Y-99988095D01*
X165833333Y-99892857D01*
X165880952Y-99845238D01*
X165976190Y-99797619D01*
X166261904Y-99797619D01*
X166357142Y-99845238D01*
X166404761Y-99892857D01*
X166452380Y-99988095D01*
X166452380Y-100130952D01*
X165785714Y-99511904D02*
X165785714Y-99130952D01*
X165452380Y-99369047D02*
X166309523Y-99369047D01*
X166404761Y-99321428D01*
X166452380Y-99226190D01*
X166452380Y-99130952D01*
X154369047Y-76321428D02*
X155130952Y-76321428D01*
X148619047Y-76321428D02*
X149380952Y-76321428D01*
X149000000Y-76702380D02*
X149000000Y-75940476D01*
X151357142Y-76702380D02*
X150880952Y-76702380D01*
X150880952Y-75702380D01*
X151690476Y-76178571D02*
X152023809Y-76178571D01*
X152166666Y-76702380D02*
X151690476Y-76702380D01*
X151690476Y-75702380D01*
X152166666Y-75702380D01*
X152595238Y-76702380D02*
X152595238Y-75702380D01*
X152833333Y-75702380D01*
X152976190Y-75750000D01*
X153071428Y-75845238D01*
X153119047Y-75940476D01*
X153166666Y-76130952D01*
X153166666Y-76273809D01*
X153119047Y-76464285D01*
X153071428Y-76559523D01*
X152976190Y-76654761D01*
X152833333Y-76702380D01*
X152595238Y-76702380D01*
D11*
%TO.C,U4*%
X108190000Y-77420000D02*
X108190000Y-87660000D01*
X124080000Y-77420000D02*
X124080000Y-87660000D01*
X124080000Y-77420000D02*
X108190000Y-77420000D01*
X124080000Y-87660000D02*
X108190000Y-87660000D01*
X108190000Y-80000000D02*
X105650000Y-80000000D01*
X108190000Y-82540000D02*
X105650000Y-82540000D01*
X108190000Y-85080000D02*
X105650000Y-85080000D01*
%TO.C,Y1*%
X106425000Y-95025000D02*
X112675000Y-95025000D01*
X106425000Y-89975000D02*
X112675000Y-89975000D01*
X112675000Y-95025000D02*
G75*
G03*
X112675000Y-89975000I0J2525000D01*
G01*
X106425000Y-95025000D02*
G75*
G02*
X106425000Y-89975000I0J2525000D01*
G01*
%TO.C,U3*%
X106670000Y-114040000D02*
X106670000Y-115690000D01*
X116950000Y-114040000D02*
X106670000Y-114040000D01*
X116950000Y-119340000D02*
X116950000Y-114040000D01*
X106670000Y-119340000D02*
X116950000Y-119340000D01*
X106670000Y-117690000D02*
X106670000Y-119340000D01*
X106670000Y-115690000D02*
G75*
G02*
X106670000Y-117690000I0J-1000000D01*
G01*
%TO.C,U2*%
X129670000Y-114040000D02*
X129670000Y-115690000D01*
X139950000Y-114040000D02*
X129670000Y-114040000D01*
X139950000Y-119340000D02*
X139950000Y-114040000D01*
X129670000Y-119340000D02*
X139950000Y-119340000D01*
X129670000Y-117690000D02*
X129670000Y-119340000D01*
X129670000Y-115690000D02*
G75*
G02*
X129670000Y-117690000I0J-1000000D01*
G01*
%TO.C,U1*%
X139830000Y-107460000D02*
X139830000Y-105810000D01*
X104150000Y-107460000D02*
X139830000Y-107460000D01*
X104150000Y-102160000D02*
X104150000Y-107460000D01*
X139830000Y-102160000D02*
X104150000Y-102160000D01*
X139830000Y-103810000D02*
X139830000Y-102160000D01*
X139830000Y-105810000D02*
G75*
G02*
X139830000Y-103810000I0J1000000D01*
G01*
%TO.C,RV1*%
X165521000Y-118500000D02*
G75*
G03*
X165521000Y-118500000I-5270000J0D01*
G01*
%TO.C,R12*%
X153120000Y-99470000D02*
X152790000Y-99470000D01*
X153120000Y-106010000D02*
X153120000Y-99470000D01*
X152790000Y-106010000D02*
X153120000Y-106010000D01*
X150380000Y-99470000D02*
X150710000Y-99470000D01*
X150380000Y-106010000D02*
X150380000Y-99470000D01*
X150710000Y-106010000D02*
X150380000Y-106010000D01*
%TO.C,R11*%
X153120000Y-113170000D02*
X152790000Y-113170000D01*
X153120000Y-119710000D02*
X153120000Y-113170000D01*
X152790000Y-119710000D02*
X153120000Y-119710000D01*
X150380000Y-113170000D02*
X150710000Y-113170000D01*
X150380000Y-119710000D02*
X150380000Y-113170000D01*
X150710000Y-119710000D02*
X150380000Y-119710000D01*
%TO.C,R10*%
X145620000Y-78670000D02*
X145290000Y-78670000D01*
X145620000Y-85210000D02*
X145620000Y-78670000D01*
X145290000Y-85210000D02*
X145620000Y-85210000D01*
X142880000Y-78670000D02*
X143210000Y-78670000D01*
X142880000Y-85210000D02*
X142880000Y-78670000D01*
X143210000Y-85210000D02*
X142880000Y-85210000D01*
%TO.C,R9*%
X139120000Y-124920000D02*
X138790000Y-124920000D01*
X139120000Y-131460000D02*
X139120000Y-124920000D01*
X138790000Y-131460000D02*
X139120000Y-131460000D01*
X136380000Y-124920000D02*
X136710000Y-124920000D01*
X136380000Y-131460000D02*
X136380000Y-124920000D01*
X136710000Y-131460000D02*
X136380000Y-131460000D01*
%TO.C,R8*%
X135870000Y-124920000D02*
X135540000Y-124920000D01*
X135870000Y-131460000D02*
X135870000Y-124920000D01*
X135540000Y-131460000D02*
X135870000Y-131460000D01*
X133130000Y-124920000D02*
X133460000Y-124920000D01*
X133130000Y-131460000D02*
X133130000Y-124920000D01*
X133460000Y-131460000D02*
X133130000Y-131460000D01*
%TO.C,R7*%
X132620000Y-124920000D02*
X132290000Y-124920000D01*
X132620000Y-131460000D02*
X132620000Y-124920000D01*
X132290000Y-131460000D02*
X132620000Y-131460000D01*
X129880000Y-124920000D02*
X130210000Y-124920000D01*
X129880000Y-131460000D02*
X129880000Y-124920000D01*
X130210000Y-131460000D02*
X129880000Y-131460000D01*
%TO.C,R6*%
X128120000Y-124920000D02*
X127790000Y-124920000D01*
X128120000Y-131460000D02*
X128120000Y-124920000D01*
X127790000Y-131460000D02*
X128120000Y-131460000D01*
X125380000Y-124920000D02*
X125710000Y-124920000D01*
X125380000Y-131460000D02*
X125380000Y-124920000D01*
X125710000Y-131460000D02*
X125380000Y-131460000D01*
%TO.C,R5*%
X125020000Y-124920000D02*
X124690000Y-124920000D01*
X125020000Y-131460000D02*
X125020000Y-124920000D01*
X124690000Y-131460000D02*
X125020000Y-131460000D01*
X122280000Y-124920000D02*
X122610000Y-124920000D01*
X122280000Y-131460000D02*
X122280000Y-124920000D01*
X122610000Y-131460000D02*
X122280000Y-131460000D01*
%TO.C,R4*%
X121870000Y-124920000D02*
X121540000Y-124920000D01*
X121870000Y-131460000D02*
X121870000Y-124920000D01*
X121540000Y-131460000D02*
X121870000Y-131460000D01*
X119130000Y-124920000D02*
X119460000Y-124920000D01*
X119130000Y-131460000D02*
X119130000Y-124920000D01*
X119460000Y-131460000D02*
X119130000Y-131460000D01*
%TO.C,R3*%
X114880000Y-131480000D02*
X115210000Y-131480000D01*
X114880000Y-124940000D02*
X114880000Y-131480000D01*
X115210000Y-124940000D02*
X114880000Y-124940000D01*
X117620000Y-131480000D02*
X117290000Y-131480000D01*
X117620000Y-124940000D02*
X117620000Y-131480000D01*
X117290000Y-124940000D02*
X117620000Y-124940000D01*
%TO.C,R2*%
X114370000Y-124920000D02*
X114040000Y-124920000D01*
X114370000Y-131460000D02*
X114370000Y-124920000D01*
X114040000Y-131460000D02*
X114370000Y-131460000D01*
X111630000Y-124920000D02*
X111960000Y-124920000D01*
X111630000Y-131460000D02*
X111630000Y-124920000D01*
X111960000Y-131460000D02*
X111630000Y-131460000D01*
%TO.C,R1*%
X111120000Y-124920000D02*
X110790000Y-124920000D01*
X111120000Y-131460000D02*
X111120000Y-124920000D01*
X110790000Y-131460000D02*
X111120000Y-131460000D01*
X108380000Y-124920000D02*
X108710000Y-124920000D01*
X108380000Y-131460000D02*
X108380000Y-124920000D01*
X108710000Y-131460000D02*
X108380000Y-131460000D01*
%TO.C,Q1*%
X147850000Y-103260000D02*
X147850000Y-99660000D01*
X147122795Y-99135816D02*
G75*
G02*
X147850000Y-99660000I-1122795J-2324184D01*
G01*
X144901193Y-99103600D02*
G75*
G03*
X143400000Y-101460000I1098807J-2356400D01*
G01*
X144901193Y-103816400D02*
G75*
G02*
X143400000Y-101460000I1098807J2356400D01*
G01*
X147122795Y-103784184D02*
G75*
G03*
X147850000Y-103260000I-1122795J2324184D01*
G01*
%TO.C,J10*%
X129920000Y-77170000D02*
X131250000Y-77170000D01*
X129920000Y-78500000D02*
X129920000Y-77170000D01*
X129920000Y-79770000D02*
X132580000Y-79770000D01*
X132580000Y-79770000D02*
X132580000Y-87450000D01*
X129920000Y-79770000D02*
X129920000Y-87450000D01*
X129920000Y-87450000D02*
X132580000Y-87450000D01*
%TO.C,J9*%
X126170000Y-77170000D02*
X127500000Y-77170000D01*
X126170000Y-78500000D02*
X126170000Y-77170000D01*
X126170000Y-79770000D02*
X128830000Y-79770000D01*
X128830000Y-79770000D02*
X128830000Y-87450000D01*
X126170000Y-79770000D02*
X126170000Y-87450000D01*
X126170000Y-87450000D02*
X128830000Y-87450000D01*
%TO.C,J8*%
X157040000Y-77190000D02*
X146880000Y-77190000D01*
X157040000Y-84810000D02*
X157040000Y-77190000D01*
X146880000Y-84810000D02*
X157040000Y-84810000D01*
X146880000Y-77190000D02*
X146880000Y-84810000D01*
X146880000Y-78460000D02*
X157040000Y-78460000D01*
%TO.C,J7*%
X92500000Y-101670000D02*
X93610000Y-101670000D01*
X93610000Y-101670000D02*
X93610000Y-103000000D01*
X82410000Y-101670000D02*
X82410000Y-117030000D01*
X82410000Y-117030000D02*
X91040000Y-117030000D01*
X91040000Y-101670000D02*
X91040000Y-117030000D01*
X82410000Y-101670000D02*
X91040000Y-101670000D01*
X82410000Y-114430000D02*
X91040000Y-114430000D01*
X82410000Y-111890000D02*
X91040000Y-111890000D01*
X82410000Y-109350000D02*
X91040000Y-109350000D01*
X82410000Y-106810000D02*
X91040000Y-106810000D01*
X82410000Y-104270000D02*
X91040000Y-104270000D01*
X91040000Y-116060000D02*
X91450000Y-116060000D01*
X91040000Y-115340000D02*
X91450000Y-115340000D01*
X91040000Y-113520000D02*
X91450000Y-113520000D01*
X91040000Y-112800000D02*
X91450000Y-112800000D01*
X91040000Y-110980000D02*
X91450000Y-110980000D01*
X91040000Y-110260000D02*
X91450000Y-110260000D01*
X91040000Y-108440000D02*
X91450000Y-108440000D01*
X91040000Y-107720000D02*
X91450000Y-107720000D01*
X91040000Y-105900000D02*
X91450000Y-105900000D01*
X91040000Y-105180000D02*
X91450000Y-105180000D01*
X91040000Y-103360000D02*
X91390000Y-103360000D01*
X91040000Y-102640000D02*
X91390000Y-102640000D01*
X82410000Y-104151900D02*
X91040000Y-104151900D01*
X82410000Y-104033805D02*
X91040000Y-104033805D01*
X82410000Y-103915710D02*
X91040000Y-103915710D01*
X82410000Y-103797615D02*
X91040000Y-103797615D01*
X82410000Y-103679520D02*
X91040000Y-103679520D01*
X82410000Y-103561425D02*
X91040000Y-103561425D01*
X82410000Y-103443330D02*
X91040000Y-103443330D01*
X82410000Y-103325235D02*
X91040000Y-103325235D01*
X82410000Y-103207140D02*
X91040000Y-103207140D01*
X82410000Y-103089045D02*
X91040000Y-103089045D01*
X82410000Y-102970950D02*
X91040000Y-102970950D01*
X82410000Y-102852855D02*
X91040000Y-102852855D01*
X82410000Y-102734760D02*
X91040000Y-102734760D01*
X82410000Y-102616665D02*
X91040000Y-102616665D01*
X82410000Y-102498570D02*
X91040000Y-102498570D01*
X82410000Y-102380475D02*
X91040000Y-102380475D01*
X82410000Y-102262380D02*
X91040000Y-102262380D01*
X82410000Y-102144285D02*
X91040000Y-102144285D01*
X82410000Y-102026190D02*
X91040000Y-102026190D01*
X82410000Y-101908095D02*
X91040000Y-101908095D01*
X82410000Y-101790000D02*
X91040000Y-101790000D01*
%TO.C,J6*%
X164810000Y-110290000D02*
X164810000Y-95050000D01*
X157190000Y-110290000D02*
X157190000Y-95050000D01*
X163540000Y-110290000D02*
X163540000Y-95050000D01*
X164810000Y-95050000D02*
X157190000Y-95050000D01*
X164810000Y-110290000D02*
X157190000Y-110290000D01*
%TO.C,J5*%
X141460000Y-132810000D02*
X151620000Y-132810000D01*
X141460000Y-125190000D02*
X141460000Y-132810000D01*
X151620000Y-125190000D02*
X141460000Y-125190000D01*
X151620000Y-132810000D02*
X151620000Y-125190000D01*
X151620000Y-131540000D02*
X141460000Y-131540000D01*
%TO.C,J4*%
X86690000Y-88460000D02*
X86690000Y-98620000D01*
X94310000Y-88460000D02*
X86690000Y-88460000D01*
X94310000Y-98620000D02*
X94310000Y-88460000D01*
X86690000Y-98620000D02*
X94310000Y-98620000D01*
X87960000Y-98620000D02*
X87960000Y-88460000D01*
%TO.C,J3*%
X95460000Y-132810000D02*
X105620000Y-132810000D01*
X95460000Y-125190000D02*
X95460000Y-132810000D01*
X105620000Y-125190000D02*
X95460000Y-125190000D01*
X105620000Y-132810000D02*
X105620000Y-125190000D01*
X105620000Y-131540000D02*
X95460000Y-131540000D01*
%TO.C,J2*%
X96670000Y-101170000D02*
X98000000Y-101170000D01*
X96670000Y-102500000D02*
X96670000Y-101170000D01*
X99270000Y-101170000D02*
X101870000Y-101170000D01*
X99270000Y-103770000D02*
X99270000Y-101170000D01*
X96670000Y-103770000D02*
X99270000Y-103770000D01*
X101870000Y-101170000D02*
X101870000Y-108910000D01*
X96670000Y-103770000D02*
X96670000Y-108910000D01*
X96670000Y-108910000D02*
X101870000Y-108910000D01*
%TO.C,J1*%
X136670000Y-79670000D02*
X138000000Y-79670000D01*
X136670000Y-81000000D02*
X136670000Y-79670000D01*
X136670000Y-82270000D02*
X139330000Y-82270000D01*
X139330000Y-82270000D02*
X139330000Y-87410000D01*
X136670000Y-82270000D02*
X136670000Y-87410000D01*
X136670000Y-87410000D02*
X139330000Y-87410000D01*
%TO.C,D2*%
X154540000Y-91420000D02*
X154540000Y-91264000D01*
X154540000Y-93736000D02*
X154540000Y-93580000D01*
X151938870Y-91420163D02*
G75*
G02*
X154020961Y-91420000I1041130J-1079837D01*
G01*
X151938870Y-93579837D02*
G75*
G03*
X154020961Y-93580000I1041130J1079837D01*
G01*
X151307665Y-91421392D02*
G75*
G02*
X154540000Y-91264484I1672335J-1078608D01*
G01*
X151307665Y-93578608D02*
G75*
G03*
X154540000Y-93735516I1672335J1078608D01*
G01*
%TO.C,D1*%
X143960000Y-93580000D02*
X143960000Y-93736000D01*
X143960000Y-91264000D02*
X143960000Y-91420000D01*
X146561130Y-93579837D02*
G75*
G02*
X144479039Y-93580000I-1041130J1079837D01*
G01*
X146561130Y-91420163D02*
G75*
G03*
X144479039Y-91420000I-1041130J-1079837D01*
G01*
X147192335Y-93578608D02*
G75*
G02*
X143960000Y-93735516I-1672335J1078608D01*
G01*
X147192335Y-91421392D02*
G75*
G03*
X143960000Y-91264484I-1672335J-1078608D01*
G01*
%TO.C,C17*%
X147820000Y-113425000D02*
X147820000Y-113670000D01*
X147820000Y-111330000D02*
X147820000Y-111575000D01*
X144180000Y-113425000D02*
X144180000Y-113670000D01*
X144180000Y-111330000D02*
X144180000Y-111575000D01*
X144180000Y-113670000D02*
X147820000Y-113670000D01*
X144180000Y-111330000D02*
X147820000Y-111330000D01*
%TO.C,C16*%
X148554775Y-120225000D02*
X148554775Y-119725000D01*
X148804775Y-119975000D02*
X148304775Y-119975000D01*
X143399000Y-118784000D02*
X143399000Y-118216000D01*
X143439000Y-119018000D02*
X143439000Y-117982000D01*
X143479000Y-119177000D02*
X143479000Y-117823000D01*
X143519000Y-119305000D02*
X143519000Y-117695000D01*
X143559000Y-119415000D02*
X143559000Y-117585000D01*
X143599000Y-119511000D02*
X143599000Y-117489000D01*
X143639000Y-119598000D02*
X143639000Y-117402000D01*
X143679000Y-119678000D02*
X143679000Y-117322000D01*
X143719000Y-117460000D02*
X143719000Y-117249000D01*
X143719000Y-119751000D02*
X143719000Y-119540000D01*
X143759000Y-117460000D02*
X143759000Y-117181000D01*
X143759000Y-119819000D02*
X143759000Y-119540000D01*
X143799000Y-117460000D02*
X143799000Y-117117000D01*
X143799000Y-119883000D02*
X143799000Y-119540000D01*
X143839000Y-117460000D02*
X143839000Y-117057000D01*
X143839000Y-119943000D02*
X143839000Y-119540000D01*
X143879000Y-117460000D02*
X143879000Y-117000000D01*
X143879000Y-120000000D02*
X143879000Y-119540000D01*
X143919000Y-117460000D02*
X143919000Y-116946000D01*
X143919000Y-120054000D02*
X143919000Y-119540000D01*
X143959000Y-117460000D02*
X143959000Y-116895000D01*
X143959000Y-120105000D02*
X143959000Y-119540000D01*
X143999000Y-117460000D02*
X143999000Y-116847000D01*
X143999000Y-120153000D02*
X143999000Y-119540000D01*
X144039000Y-117460000D02*
X144039000Y-116801000D01*
X144039000Y-120199000D02*
X144039000Y-119540000D01*
X144079000Y-117460000D02*
X144079000Y-116757000D01*
X144079000Y-120243000D02*
X144079000Y-119540000D01*
X144119000Y-117460000D02*
X144119000Y-116715000D01*
X144119000Y-120285000D02*
X144119000Y-119540000D01*
X144159000Y-117460000D02*
X144159000Y-116674000D01*
X144159000Y-120326000D02*
X144159000Y-119540000D01*
X144199000Y-117460000D02*
X144199000Y-116636000D01*
X144199000Y-120364000D02*
X144199000Y-119540000D01*
X144239000Y-117460000D02*
X144239000Y-116599000D01*
X144239000Y-120401000D02*
X144239000Y-119540000D01*
X144279000Y-117460000D02*
X144279000Y-116563000D01*
X144279000Y-120437000D02*
X144279000Y-119540000D01*
X144319000Y-117460000D02*
X144319000Y-116529000D01*
X144319000Y-120471000D02*
X144319000Y-119540000D01*
X144359000Y-117460000D02*
X144359000Y-116496000D01*
X144359000Y-120504000D02*
X144359000Y-119540000D01*
X144399000Y-117460000D02*
X144399000Y-116465000D01*
X144399000Y-120535000D02*
X144399000Y-119540000D01*
X144439000Y-117460000D02*
X144439000Y-116435000D01*
X144439000Y-120565000D02*
X144439000Y-119540000D01*
X144479000Y-117460000D02*
X144479000Y-116405000D01*
X144479000Y-120595000D02*
X144479000Y-119540000D01*
X144519000Y-117460000D02*
X144519000Y-116378000D01*
X144519000Y-120622000D02*
X144519000Y-119540000D01*
X144559000Y-117460000D02*
X144559000Y-116351000D01*
X144559000Y-120649000D02*
X144559000Y-119540000D01*
X144599000Y-117460000D02*
X144599000Y-116325000D01*
X144599000Y-120675000D02*
X144599000Y-119540000D01*
X144639000Y-117460000D02*
X144639000Y-116300000D01*
X144639000Y-120700000D02*
X144639000Y-119540000D01*
X144679000Y-117460000D02*
X144679000Y-116276000D01*
X144679000Y-120724000D02*
X144679000Y-119540000D01*
X144719000Y-117460000D02*
X144719000Y-116253000D01*
X144719000Y-120747000D02*
X144719000Y-119540000D01*
X144759000Y-117460000D02*
X144759000Y-116232000D01*
X144759000Y-120768000D02*
X144759000Y-119540000D01*
X144799000Y-117460000D02*
X144799000Y-116210000D01*
X144799000Y-120790000D02*
X144799000Y-119540000D01*
X144839000Y-117460000D02*
X144839000Y-116190000D01*
X144839000Y-120810000D02*
X144839000Y-119540000D01*
X144879000Y-117460000D02*
X144879000Y-116171000D01*
X144879000Y-120829000D02*
X144879000Y-119540000D01*
X144919000Y-117460000D02*
X144919000Y-116152000D01*
X144919000Y-120848000D02*
X144919000Y-119540000D01*
X144959000Y-117460000D02*
X144959000Y-116135000D01*
X144959000Y-120865000D02*
X144959000Y-119540000D01*
X144999000Y-117460000D02*
X144999000Y-116118000D01*
X144999000Y-120882000D02*
X144999000Y-119540000D01*
X145039000Y-117460000D02*
X145039000Y-116102000D01*
X145039000Y-120898000D02*
X145039000Y-119540000D01*
X145079000Y-117460000D02*
X145079000Y-116086000D01*
X145079000Y-120914000D02*
X145079000Y-119540000D01*
X145119000Y-117460000D02*
X145119000Y-116072000D01*
X145119000Y-120928000D02*
X145119000Y-119540000D01*
X145159000Y-117460000D02*
X145159000Y-116058000D01*
X145159000Y-120942000D02*
X145159000Y-119540000D01*
X145199000Y-117460000D02*
X145199000Y-116045000D01*
X145199000Y-120955000D02*
X145199000Y-119540000D01*
X145239000Y-117460000D02*
X145239000Y-116032000D01*
X145239000Y-120968000D02*
X145239000Y-119540000D01*
X145279000Y-117460000D02*
X145279000Y-116020000D01*
X145279000Y-120980000D02*
X145279000Y-119540000D01*
X145320000Y-117460000D02*
X145320000Y-116009000D01*
X145320000Y-120991000D02*
X145320000Y-119540000D01*
X145360000Y-117460000D02*
X145360000Y-115999000D01*
X145360000Y-121001000D02*
X145360000Y-119540000D01*
X145400000Y-117460000D02*
X145400000Y-115989000D01*
X145400000Y-121011000D02*
X145400000Y-119540000D01*
X145440000Y-117460000D02*
X145440000Y-115980000D01*
X145440000Y-121020000D02*
X145440000Y-119540000D01*
X145480000Y-117460000D02*
X145480000Y-115972000D01*
X145480000Y-121028000D02*
X145480000Y-119540000D01*
X145520000Y-117460000D02*
X145520000Y-115964000D01*
X145520000Y-121036000D02*
X145520000Y-119540000D01*
X145560000Y-117460000D02*
X145560000Y-115957000D01*
X145560000Y-121043000D02*
X145560000Y-119540000D01*
X145600000Y-117460000D02*
X145600000Y-115950000D01*
X145600000Y-121050000D02*
X145600000Y-119540000D01*
X145640000Y-117460000D02*
X145640000Y-115944000D01*
X145640000Y-121056000D02*
X145640000Y-119540000D01*
X145680000Y-117460000D02*
X145680000Y-115939000D01*
X145680000Y-121061000D02*
X145680000Y-119540000D01*
X145720000Y-117460000D02*
X145720000Y-115935000D01*
X145720000Y-121065000D02*
X145720000Y-119540000D01*
X145760000Y-117460000D02*
X145760000Y-115931000D01*
X145760000Y-121069000D02*
X145760000Y-119540000D01*
X145800000Y-121073000D02*
X145800000Y-115927000D01*
X145840000Y-121076000D02*
X145840000Y-115924000D01*
X145880000Y-121078000D02*
X145880000Y-115922000D01*
X145920000Y-121079000D02*
X145920000Y-115921000D01*
X145960000Y-121080000D02*
X145960000Y-115920000D01*
X146000000Y-121080000D02*
X146000000Y-115920000D01*
X148620000Y-118500000D02*
G75*
G03*
X148620000Y-118500000I-2620000J0D01*
G01*
%TO.C,C15*%
X95695225Y-86275000D02*
X95695225Y-86775000D01*
X95445225Y-86525000D02*
X95945225Y-86525000D01*
X100851000Y-87716000D02*
X100851000Y-88284000D01*
X100811000Y-87482000D02*
X100811000Y-88518000D01*
X100771000Y-87323000D02*
X100771000Y-88677000D01*
X100731000Y-87195000D02*
X100731000Y-88805000D01*
X100691000Y-87085000D02*
X100691000Y-88915000D01*
X100651000Y-86989000D02*
X100651000Y-89011000D01*
X100611000Y-86902000D02*
X100611000Y-89098000D01*
X100571000Y-86822000D02*
X100571000Y-89178000D01*
X100531000Y-89040000D02*
X100531000Y-89251000D01*
X100531000Y-86749000D02*
X100531000Y-86960000D01*
X100491000Y-89040000D02*
X100491000Y-89319000D01*
X100491000Y-86681000D02*
X100491000Y-86960000D01*
X100451000Y-89040000D02*
X100451000Y-89383000D01*
X100451000Y-86617000D02*
X100451000Y-86960000D01*
X100411000Y-89040000D02*
X100411000Y-89443000D01*
X100411000Y-86557000D02*
X100411000Y-86960000D01*
X100371000Y-89040000D02*
X100371000Y-89500000D01*
X100371000Y-86500000D02*
X100371000Y-86960000D01*
X100331000Y-89040000D02*
X100331000Y-89554000D01*
X100331000Y-86446000D02*
X100331000Y-86960000D01*
X100291000Y-89040000D02*
X100291000Y-89605000D01*
X100291000Y-86395000D02*
X100291000Y-86960000D01*
X100251000Y-89040000D02*
X100251000Y-89653000D01*
X100251000Y-86347000D02*
X100251000Y-86960000D01*
X100211000Y-89040000D02*
X100211000Y-89699000D01*
X100211000Y-86301000D02*
X100211000Y-86960000D01*
X100171000Y-89040000D02*
X100171000Y-89743000D01*
X100171000Y-86257000D02*
X100171000Y-86960000D01*
X100131000Y-89040000D02*
X100131000Y-89785000D01*
X100131000Y-86215000D02*
X100131000Y-86960000D01*
X100091000Y-89040000D02*
X100091000Y-89826000D01*
X100091000Y-86174000D02*
X100091000Y-86960000D01*
X100051000Y-89040000D02*
X100051000Y-89864000D01*
X100051000Y-86136000D02*
X100051000Y-86960000D01*
X100011000Y-89040000D02*
X100011000Y-89901000D01*
X100011000Y-86099000D02*
X100011000Y-86960000D01*
X99971000Y-89040000D02*
X99971000Y-89937000D01*
X99971000Y-86063000D02*
X99971000Y-86960000D01*
X99931000Y-89040000D02*
X99931000Y-89971000D01*
X99931000Y-86029000D02*
X99931000Y-86960000D01*
X99891000Y-89040000D02*
X99891000Y-90004000D01*
X99891000Y-85996000D02*
X99891000Y-86960000D01*
X99851000Y-89040000D02*
X99851000Y-90035000D01*
X99851000Y-85965000D02*
X99851000Y-86960000D01*
X99811000Y-89040000D02*
X99811000Y-90065000D01*
X99811000Y-85935000D02*
X99811000Y-86960000D01*
X99771000Y-89040000D02*
X99771000Y-90095000D01*
X99771000Y-85905000D02*
X99771000Y-86960000D01*
X99731000Y-89040000D02*
X99731000Y-90122000D01*
X99731000Y-85878000D02*
X99731000Y-86960000D01*
X99691000Y-89040000D02*
X99691000Y-90149000D01*
X99691000Y-85851000D02*
X99691000Y-86960000D01*
X99651000Y-89040000D02*
X99651000Y-90175000D01*
X99651000Y-85825000D02*
X99651000Y-86960000D01*
X99611000Y-89040000D02*
X99611000Y-90200000D01*
X99611000Y-85800000D02*
X99611000Y-86960000D01*
X99571000Y-89040000D02*
X99571000Y-90224000D01*
X99571000Y-85776000D02*
X99571000Y-86960000D01*
X99531000Y-89040000D02*
X99531000Y-90247000D01*
X99531000Y-85753000D02*
X99531000Y-86960000D01*
X99491000Y-89040000D02*
X99491000Y-90268000D01*
X99491000Y-85732000D02*
X99491000Y-86960000D01*
X99451000Y-89040000D02*
X99451000Y-90290000D01*
X99451000Y-85710000D02*
X99451000Y-86960000D01*
X99411000Y-89040000D02*
X99411000Y-90310000D01*
X99411000Y-85690000D02*
X99411000Y-86960000D01*
X99371000Y-89040000D02*
X99371000Y-90329000D01*
X99371000Y-85671000D02*
X99371000Y-86960000D01*
X99331000Y-89040000D02*
X99331000Y-90348000D01*
X99331000Y-85652000D02*
X99331000Y-86960000D01*
X99291000Y-89040000D02*
X99291000Y-90365000D01*
X99291000Y-85635000D02*
X99291000Y-86960000D01*
X99251000Y-89040000D02*
X99251000Y-90382000D01*
X99251000Y-85618000D02*
X99251000Y-86960000D01*
X99211000Y-89040000D02*
X99211000Y-90398000D01*
X99211000Y-85602000D02*
X99211000Y-86960000D01*
X99171000Y-89040000D02*
X99171000Y-90414000D01*
X99171000Y-85586000D02*
X99171000Y-86960000D01*
X99131000Y-89040000D02*
X99131000Y-90428000D01*
X99131000Y-85572000D02*
X99131000Y-86960000D01*
X99091000Y-89040000D02*
X99091000Y-90442000D01*
X99091000Y-85558000D02*
X99091000Y-86960000D01*
X99051000Y-89040000D02*
X99051000Y-90455000D01*
X99051000Y-85545000D02*
X99051000Y-86960000D01*
X99011000Y-89040000D02*
X99011000Y-90468000D01*
X99011000Y-85532000D02*
X99011000Y-86960000D01*
X98971000Y-89040000D02*
X98971000Y-90480000D01*
X98971000Y-85520000D02*
X98971000Y-86960000D01*
X98930000Y-89040000D02*
X98930000Y-90491000D01*
X98930000Y-85509000D02*
X98930000Y-86960000D01*
X98890000Y-89040000D02*
X98890000Y-90501000D01*
X98890000Y-85499000D02*
X98890000Y-86960000D01*
X98850000Y-89040000D02*
X98850000Y-90511000D01*
X98850000Y-85489000D02*
X98850000Y-86960000D01*
X98810000Y-89040000D02*
X98810000Y-90520000D01*
X98810000Y-85480000D02*
X98810000Y-86960000D01*
X98770000Y-89040000D02*
X98770000Y-90528000D01*
X98770000Y-85472000D02*
X98770000Y-86960000D01*
X98730000Y-89040000D02*
X98730000Y-90536000D01*
X98730000Y-85464000D02*
X98730000Y-86960000D01*
X98690000Y-89040000D02*
X98690000Y-90543000D01*
X98690000Y-85457000D02*
X98690000Y-86960000D01*
X98650000Y-89040000D02*
X98650000Y-90550000D01*
X98650000Y-85450000D02*
X98650000Y-86960000D01*
X98610000Y-89040000D02*
X98610000Y-90556000D01*
X98610000Y-85444000D02*
X98610000Y-86960000D01*
X98570000Y-89040000D02*
X98570000Y-90561000D01*
X98570000Y-85439000D02*
X98570000Y-86960000D01*
X98530000Y-89040000D02*
X98530000Y-90565000D01*
X98530000Y-85435000D02*
X98530000Y-86960000D01*
X98490000Y-89040000D02*
X98490000Y-90569000D01*
X98490000Y-85431000D02*
X98490000Y-86960000D01*
X98450000Y-85427000D02*
X98450000Y-90573000D01*
X98410000Y-85424000D02*
X98410000Y-90576000D01*
X98370000Y-85422000D02*
X98370000Y-90578000D01*
X98330000Y-85421000D02*
X98330000Y-90579000D01*
X98290000Y-85420000D02*
X98290000Y-90580000D01*
X98250000Y-85420000D02*
X98250000Y-90580000D01*
X100870000Y-88000000D02*
G75*
G03*
X100870000Y-88000000I-2620000J0D01*
G01*
%TO.C,C14*%
X153680000Y-125825000D02*
X153680000Y-125580000D01*
X153680000Y-127920000D02*
X153680000Y-127675000D01*
X157320000Y-125825000D02*
X157320000Y-125580000D01*
X157320000Y-127920000D02*
X157320000Y-127675000D01*
X157320000Y-125580000D02*
X153680000Y-125580000D01*
X157320000Y-127920000D02*
X153680000Y-127920000D01*
%TO.C,C13*%
X121930000Y-118325000D02*
X121930000Y-118080000D01*
X121930000Y-120420000D02*
X121930000Y-120175000D01*
X125570000Y-118325000D02*
X125570000Y-118080000D01*
X125570000Y-120420000D02*
X125570000Y-120175000D01*
X125570000Y-118080000D02*
X121930000Y-118080000D01*
X125570000Y-120420000D02*
X121930000Y-120420000D01*
%TO.C,C12*%
X95695225Y-78275000D02*
X95695225Y-78775000D01*
X95445225Y-78525000D02*
X95945225Y-78525000D01*
X100851000Y-79716000D02*
X100851000Y-80284000D01*
X100811000Y-79482000D02*
X100811000Y-80518000D01*
X100771000Y-79323000D02*
X100771000Y-80677000D01*
X100731000Y-79195000D02*
X100731000Y-80805000D01*
X100691000Y-79085000D02*
X100691000Y-80915000D01*
X100651000Y-78989000D02*
X100651000Y-81011000D01*
X100611000Y-78902000D02*
X100611000Y-81098000D01*
X100571000Y-78822000D02*
X100571000Y-81178000D01*
X100531000Y-81040000D02*
X100531000Y-81251000D01*
X100531000Y-78749000D02*
X100531000Y-78960000D01*
X100491000Y-81040000D02*
X100491000Y-81319000D01*
X100491000Y-78681000D02*
X100491000Y-78960000D01*
X100451000Y-81040000D02*
X100451000Y-81383000D01*
X100451000Y-78617000D02*
X100451000Y-78960000D01*
X100411000Y-81040000D02*
X100411000Y-81443000D01*
X100411000Y-78557000D02*
X100411000Y-78960000D01*
X100371000Y-81040000D02*
X100371000Y-81500000D01*
X100371000Y-78500000D02*
X100371000Y-78960000D01*
X100331000Y-81040000D02*
X100331000Y-81554000D01*
X100331000Y-78446000D02*
X100331000Y-78960000D01*
X100291000Y-81040000D02*
X100291000Y-81605000D01*
X100291000Y-78395000D02*
X100291000Y-78960000D01*
X100251000Y-81040000D02*
X100251000Y-81653000D01*
X100251000Y-78347000D02*
X100251000Y-78960000D01*
X100211000Y-81040000D02*
X100211000Y-81699000D01*
X100211000Y-78301000D02*
X100211000Y-78960000D01*
X100171000Y-81040000D02*
X100171000Y-81743000D01*
X100171000Y-78257000D02*
X100171000Y-78960000D01*
X100131000Y-81040000D02*
X100131000Y-81785000D01*
X100131000Y-78215000D02*
X100131000Y-78960000D01*
X100091000Y-81040000D02*
X100091000Y-81826000D01*
X100091000Y-78174000D02*
X100091000Y-78960000D01*
X100051000Y-81040000D02*
X100051000Y-81864000D01*
X100051000Y-78136000D02*
X100051000Y-78960000D01*
X100011000Y-81040000D02*
X100011000Y-81901000D01*
X100011000Y-78099000D02*
X100011000Y-78960000D01*
X99971000Y-81040000D02*
X99971000Y-81937000D01*
X99971000Y-78063000D02*
X99971000Y-78960000D01*
X99931000Y-81040000D02*
X99931000Y-81971000D01*
X99931000Y-78029000D02*
X99931000Y-78960000D01*
X99891000Y-81040000D02*
X99891000Y-82004000D01*
X99891000Y-77996000D02*
X99891000Y-78960000D01*
X99851000Y-81040000D02*
X99851000Y-82035000D01*
X99851000Y-77965000D02*
X99851000Y-78960000D01*
X99811000Y-81040000D02*
X99811000Y-82065000D01*
X99811000Y-77935000D02*
X99811000Y-78960000D01*
X99771000Y-81040000D02*
X99771000Y-82095000D01*
X99771000Y-77905000D02*
X99771000Y-78960000D01*
X99731000Y-81040000D02*
X99731000Y-82122000D01*
X99731000Y-77878000D02*
X99731000Y-78960000D01*
X99691000Y-81040000D02*
X99691000Y-82149000D01*
X99691000Y-77851000D02*
X99691000Y-78960000D01*
X99651000Y-81040000D02*
X99651000Y-82175000D01*
X99651000Y-77825000D02*
X99651000Y-78960000D01*
X99611000Y-81040000D02*
X99611000Y-82200000D01*
X99611000Y-77800000D02*
X99611000Y-78960000D01*
X99571000Y-81040000D02*
X99571000Y-82224000D01*
X99571000Y-77776000D02*
X99571000Y-78960000D01*
X99531000Y-81040000D02*
X99531000Y-82247000D01*
X99531000Y-77753000D02*
X99531000Y-78960000D01*
X99491000Y-81040000D02*
X99491000Y-82268000D01*
X99491000Y-77732000D02*
X99491000Y-78960000D01*
X99451000Y-81040000D02*
X99451000Y-82290000D01*
X99451000Y-77710000D02*
X99451000Y-78960000D01*
X99411000Y-81040000D02*
X99411000Y-82310000D01*
X99411000Y-77690000D02*
X99411000Y-78960000D01*
X99371000Y-81040000D02*
X99371000Y-82329000D01*
X99371000Y-77671000D02*
X99371000Y-78960000D01*
X99331000Y-81040000D02*
X99331000Y-82348000D01*
X99331000Y-77652000D02*
X99331000Y-78960000D01*
X99291000Y-81040000D02*
X99291000Y-82365000D01*
X99291000Y-77635000D02*
X99291000Y-78960000D01*
X99251000Y-81040000D02*
X99251000Y-82382000D01*
X99251000Y-77618000D02*
X99251000Y-78960000D01*
X99211000Y-81040000D02*
X99211000Y-82398000D01*
X99211000Y-77602000D02*
X99211000Y-78960000D01*
X99171000Y-81040000D02*
X99171000Y-82414000D01*
X99171000Y-77586000D02*
X99171000Y-78960000D01*
X99131000Y-81040000D02*
X99131000Y-82428000D01*
X99131000Y-77572000D02*
X99131000Y-78960000D01*
X99091000Y-81040000D02*
X99091000Y-82442000D01*
X99091000Y-77558000D02*
X99091000Y-78960000D01*
X99051000Y-81040000D02*
X99051000Y-82455000D01*
X99051000Y-77545000D02*
X99051000Y-78960000D01*
X99011000Y-81040000D02*
X99011000Y-82468000D01*
X99011000Y-77532000D02*
X99011000Y-78960000D01*
X98971000Y-81040000D02*
X98971000Y-82480000D01*
X98971000Y-77520000D02*
X98971000Y-78960000D01*
X98930000Y-81040000D02*
X98930000Y-82491000D01*
X98930000Y-77509000D02*
X98930000Y-78960000D01*
X98890000Y-81040000D02*
X98890000Y-82501000D01*
X98890000Y-77499000D02*
X98890000Y-78960000D01*
X98850000Y-81040000D02*
X98850000Y-82511000D01*
X98850000Y-77489000D02*
X98850000Y-78960000D01*
X98810000Y-81040000D02*
X98810000Y-82520000D01*
X98810000Y-77480000D02*
X98810000Y-78960000D01*
X98770000Y-81040000D02*
X98770000Y-82528000D01*
X98770000Y-77472000D02*
X98770000Y-78960000D01*
X98730000Y-81040000D02*
X98730000Y-82536000D01*
X98730000Y-77464000D02*
X98730000Y-78960000D01*
X98690000Y-81040000D02*
X98690000Y-82543000D01*
X98690000Y-77457000D02*
X98690000Y-78960000D01*
X98650000Y-81040000D02*
X98650000Y-82550000D01*
X98650000Y-77450000D02*
X98650000Y-78960000D01*
X98610000Y-81040000D02*
X98610000Y-82556000D01*
X98610000Y-77444000D02*
X98610000Y-78960000D01*
X98570000Y-81040000D02*
X98570000Y-82561000D01*
X98570000Y-77439000D02*
X98570000Y-78960000D01*
X98530000Y-81040000D02*
X98530000Y-82565000D01*
X98530000Y-77435000D02*
X98530000Y-78960000D01*
X98490000Y-81040000D02*
X98490000Y-82569000D01*
X98490000Y-77431000D02*
X98490000Y-78960000D01*
X98450000Y-77427000D02*
X98450000Y-82573000D01*
X98410000Y-77424000D02*
X98410000Y-82576000D01*
X98370000Y-77422000D02*
X98370000Y-82578000D01*
X98330000Y-77421000D02*
X98330000Y-82579000D01*
X98290000Y-77420000D02*
X98290000Y-82580000D01*
X98250000Y-77420000D02*
X98250000Y-82580000D01*
X100870000Y-80000000D02*
G75*
G03*
X100870000Y-80000000I-2620000J0D01*
G01*
%TO.C,C11*%
X125570000Y-117175000D02*
X125570000Y-117420000D01*
X125570000Y-115080000D02*
X125570000Y-115325000D01*
X121930000Y-117175000D02*
X121930000Y-117420000D01*
X121930000Y-115080000D02*
X121930000Y-115325000D01*
X121930000Y-117420000D02*
X125570000Y-117420000D01*
X121930000Y-115080000D02*
X125570000Y-115080000D01*
%TO.C,C10*%
X121930000Y-112575000D02*
X121930000Y-112330000D01*
X121930000Y-114670000D02*
X121930000Y-114425000D01*
X125570000Y-112575000D02*
X125570000Y-112330000D01*
X125570000Y-114670000D02*
X125570000Y-114425000D01*
X125570000Y-112330000D02*
X121930000Y-112330000D01*
X125570000Y-114670000D02*
X121930000Y-114670000D01*
%TO.C,C9*%
X92570000Y-86925000D02*
X92570000Y-87170000D01*
X92570000Y-84830000D02*
X92570000Y-85075000D01*
X88930000Y-86925000D02*
X88930000Y-87170000D01*
X88930000Y-84830000D02*
X88930000Y-85075000D01*
X88930000Y-87170000D02*
X92570000Y-87170000D01*
X88930000Y-84830000D02*
X92570000Y-84830000D01*
%TO.C,C8*%
X103570000Y-120425000D02*
X103570000Y-120670000D01*
X103570000Y-118330000D02*
X103570000Y-118575000D01*
X99930000Y-120425000D02*
X99930000Y-120670000D01*
X99930000Y-118330000D02*
X99930000Y-118575000D01*
X99930000Y-120670000D02*
X103570000Y-120670000D01*
X99930000Y-118330000D02*
X103570000Y-118330000D01*
%TO.C,C7*%
X147820000Y-110425000D02*
X147820000Y-110670000D01*
X147820000Y-108330000D02*
X147820000Y-108575000D01*
X144180000Y-110425000D02*
X144180000Y-110670000D01*
X144180000Y-108330000D02*
X144180000Y-108575000D01*
X144180000Y-110670000D02*
X147820000Y-110670000D01*
X144180000Y-108330000D02*
X147820000Y-108330000D01*
%TO.C,C6*%
X99930000Y-115575000D02*
X99930000Y-115330000D01*
X99930000Y-117670000D02*
X99930000Y-117425000D01*
X103570000Y-115575000D02*
X103570000Y-115330000D01*
X103570000Y-117670000D02*
X103570000Y-117425000D01*
X103570000Y-115330000D02*
X99930000Y-115330000D01*
X103570000Y-117670000D02*
X99930000Y-117670000D01*
%TO.C,C5*%
X116570000Y-98425000D02*
X116570000Y-98670000D01*
X116570000Y-96330000D02*
X116570000Y-96575000D01*
X112930000Y-98425000D02*
X112930000Y-98670000D01*
X112930000Y-96330000D02*
X112930000Y-96575000D01*
X112930000Y-98670000D02*
X116570000Y-98670000D01*
X112930000Y-96330000D02*
X116570000Y-96330000D01*
%TO.C,C4*%
X103570000Y-114425000D02*
X103570000Y-114670000D01*
X103570000Y-112330000D02*
X103570000Y-112575000D01*
X99930000Y-114425000D02*
X99930000Y-114670000D01*
X99930000Y-112330000D02*
X99930000Y-112575000D01*
X99930000Y-114670000D02*
X103570000Y-114670000D01*
X99930000Y-112330000D02*
X103570000Y-112330000D01*
%TO.C,C3*%
X109070000Y-98425000D02*
X109070000Y-98670000D01*
X109070000Y-96330000D02*
X109070000Y-96575000D01*
X105430000Y-98425000D02*
X105430000Y-98670000D01*
X105430000Y-96330000D02*
X105430000Y-96575000D01*
X105430000Y-98670000D02*
X109070000Y-98670000D01*
X105430000Y-96330000D02*
X109070000Y-96330000D01*
%TO.C,C2*%
X95695225Y-94275000D02*
X95695225Y-94775000D01*
X95445225Y-94525000D02*
X95945225Y-94525000D01*
X100851000Y-95716000D02*
X100851000Y-96284000D01*
X100811000Y-95482000D02*
X100811000Y-96518000D01*
X100771000Y-95323000D02*
X100771000Y-96677000D01*
X100731000Y-95195000D02*
X100731000Y-96805000D01*
X100691000Y-95085000D02*
X100691000Y-96915000D01*
X100651000Y-94989000D02*
X100651000Y-97011000D01*
X100611000Y-94902000D02*
X100611000Y-97098000D01*
X100571000Y-94822000D02*
X100571000Y-97178000D01*
X100531000Y-97040000D02*
X100531000Y-97251000D01*
X100531000Y-94749000D02*
X100531000Y-94960000D01*
X100491000Y-97040000D02*
X100491000Y-97319000D01*
X100491000Y-94681000D02*
X100491000Y-94960000D01*
X100451000Y-97040000D02*
X100451000Y-97383000D01*
X100451000Y-94617000D02*
X100451000Y-94960000D01*
X100411000Y-97040000D02*
X100411000Y-97443000D01*
X100411000Y-94557000D02*
X100411000Y-94960000D01*
X100371000Y-97040000D02*
X100371000Y-97500000D01*
X100371000Y-94500000D02*
X100371000Y-94960000D01*
X100331000Y-97040000D02*
X100331000Y-97554000D01*
X100331000Y-94446000D02*
X100331000Y-94960000D01*
X100291000Y-97040000D02*
X100291000Y-97605000D01*
X100291000Y-94395000D02*
X100291000Y-94960000D01*
X100251000Y-97040000D02*
X100251000Y-97653000D01*
X100251000Y-94347000D02*
X100251000Y-94960000D01*
X100211000Y-97040000D02*
X100211000Y-97699000D01*
X100211000Y-94301000D02*
X100211000Y-94960000D01*
X100171000Y-97040000D02*
X100171000Y-97743000D01*
X100171000Y-94257000D02*
X100171000Y-94960000D01*
X100131000Y-97040000D02*
X100131000Y-97785000D01*
X100131000Y-94215000D02*
X100131000Y-94960000D01*
X100091000Y-97040000D02*
X100091000Y-97826000D01*
X100091000Y-94174000D02*
X100091000Y-94960000D01*
X100051000Y-97040000D02*
X100051000Y-97864000D01*
X100051000Y-94136000D02*
X100051000Y-94960000D01*
X100011000Y-97040000D02*
X100011000Y-97901000D01*
X100011000Y-94099000D02*
X100011000Y-94960000D01*
X99971000Y-97040000D02*
X99971000Y-97937000D01*
X99971000Y-94063000D02*
X99971000Y-94960000D01*
X99931000Y-97040000D02*
X99931000Y-97971000D01*
X99931000Y-94029000D02*
X99931000Y-94960000D01*
X99891000Y-97040000D02*
X99891000Y-98004000D01*
X99891000Y-93996000D02*
X99891000Y-94960000D01*
X99851000Y-97040000D02*
X99851000Y-98035000D01*
X99851000Y-93965000D02*
X99851000Y-94960000D01*
X99811000Y-97040000D02*
X99811000Y-98065000D01*
X99811000Y-93935000D02*
X99811000Y-94960000D01*
X99771000Y-97040000D02*
X99771000Y-98095000D01*
X99771000Y-93905000D02*
X99771000Y-94960000D01*
X99731000Y-97040000D02*
X99731000Y-98122000D01*
X99731000Y-93878000D02*
X99731000Y-94960000D01*
X99691000Y-97040000D02*
X99691000Y-98149000D01*
X99691000Y-93851000D02*
X99691000Y-94960000D01*
X99651000Y-97040000D02*
X99651000Y-98175000D01*
X99651000Y-93825000D02*
X99651000Y-94960000D01*
X99611000Y-97040000D02*
X99611000Y-98200000D01*
X99611000Y-93800000D02*
X99611000Y-94960000D01*
X99571000Y-97040000D02*
X99571000Y-98224000D01*
X99571000Y-93776000D02*
X99571000Y-94960000D01*
X99531000Y-97040000D02*
X99531000Y-98247000D01*
X99531000Y-93753000D02*
X99531000Y-94960000D01*
X99491000Y-97040000D02*
X99491000Y-98268000D01*
X99491000Y-93732000D02*
X99491000Y-94960000D01*
X99451000Y-97040000D02*
X99451000Y-98290000D01*
X99451000Y-93710000D02*
X99451000Y-94960000D01*
X99411000Y-97040000D02*
X99411000Y-98310000D01*
X99411000Y-93690000D02*
X99411000Y-94960000D01*
X99371000Y-97040000D02*
X99371000Y-98329000D01*
X99371000Y-93671000D02*
X99371000Y-94960000D01*
X99331000Y-97040000D02*
X99331000Y-98348000D01*
X99331000Y-93652000D02*
X99331000Y-94960000D01*
X99291000Y-97040000D02*
X99291000Y-98365000D01*
X99291000Y-93635000D02*
X99291000Y-94960000D01*
X99251000Y-97040000D02*
X99251000Y-98382000D01*
X99251000Y-93618000D02*
X99251000Y-94960000D01*
X99211000Y-97040000D02*
X99211000Y-98398000D01*
X99211000Y-93602000D02*
X99211000Y-94960000D01*
X99171000Y-97040000D02*
X99171000Y-98414000D01*
X99171000Y-93586000D02*
X99171000Y-94960000D01*
X99131000Y-97040000D02*
X99131000Y-98428000D01*
X99131000Y-93572000D02*
X99131000Y-94960000D01*
X99091000Y-97040000D02*
X99091000Y-98442000D01*
X99091000Y-93558000D02*
X99091000Y-94960000D01*
X99051000Y-97040000D02*
X99051000Y-98455000D01*
X99051000Y-93545000D02*
X99051000Y-94960000D01*
X99011000Y-97040000D02*
X99011000Y-98468000D01*
X99011000Y-93532000D02*
X99011000Y-94960000D01*
X98971000Y-97040000D02*
X98971000Y-98480000D01*
X98971000Y-93520000D02*
X98971000Y-94960000D01*
X98930000Y-97040000D02*
X98930000Y-98491000D01*
X98930000Y-93509000D02*
X98930000Y-94960000D01*
X98890000Y-97040000D02*
X98890000Y-98501000D01*
X98890000Y-93499000D02*
X98890000Y-94960000D01*
X98850000Y-97040000D02*
X98850000Y-98511000D01*
X98850000Y-93489000D02*
X98850000Y-94960000D01*
X98810000Y-97040000D02*
X98810000Y-98520000D01*
X98810000Y-93480000D02*
X98810000Y-94960000D01*
X98770000Y-97040000D02*
X98770000Y-98528000D01*
X98770000Y-93472000D02*
X98770000Y-94960000D01*
X98730000Y-97040000D02*
X98730000Y-98536000D01*
X98730000Y-93464000D02*
X98730000Y-94960000D01*
X98690000Y-97040000D02*
X98690000Y-98543000D01*
X98690000Y-93457000D02*
X98690000Y-94960000D01*
X98650000Y-97040000D02*
X98650000Y-98550000D01*
X98650000Y-93450000D02*
X98650000Y-94960000D01*
X98610000Y-97040000D02*
X98610000Y-98556000D01*
X98610000Y-93444000D02*
X98610000Y-94960000D01*
X98570000Y-97040000D02*
X98570000Y-98561000D01*
X98570000Y-93439000D02*
X98570000Y-94960000D01*
X98530000Y-97040000D02*
X98530000Y-98565000D01*
X98530000Y-93435000D02*
X98530000Y-94960000D01*
X98490000Y-97040000D02*
X98490000Y-98569000D01*
X98490000Y-93431000D02*
X98490000Y-94960000D01*
X98450000Y-93427000D02*
X98450000Y-98573000D01*
X98410000Y-93424000D02*
X98410000Y-98576000D01*
X98370000Y-93422000D02*
X98370000Y-98578000D01*
X98330000Y-93421000D02*
X98330000Y-98579000D01*
X98290000Y-93420000D02*
X98290000Y-98580000D01*
X98250000Y-93420000D02*
X98250000Y-98580000D01*
X100870000Y-96000000D02*
G75*
G03*
X100870000Y-96000000I-2620000J0D01*
G01*
%TO.C,C1*%
X120430000Y-96575000D02*
X120430000Y-96330000D01*
X120430000Y-98670000D02*
X120430000Y-98425000D01*
X124070000Y-96575000D02*
X124070000Y-96330000D01*
X124070000Y-98670000D02*
X124070000Y-98425000D01*
X124070000Y-96330000D02*
X120430000Y-96330000D01*
X124070000Y-98670000D02*
X120430000Y-98670000D01*
%TD*%
%TO.C,U4*%
D10*
X121238095Y-88452380D02*
X121238095Y-89261904D01*
X121285714Y-89357142D01*
X121333333Y-89404761D01*
X121428571Y-89452380D01*
X121619047Y-89452380D01*
X121714285Y-89404761D01*
X121761904Y-89357142D01*
X121809523Y-89261904D01*
X121809523Y-88452380D01*
X122714285Y-88785714D02*
X122714285Y-89452380D01*
X122476190Y-88404761D02*
X122238095Y-89119047D01*
X122857142Y-89119047D01*
%TO.C,Y1*%
X116523809Y-92476190D02*
X116523809Y-92952380D01*
X116190476Y-91952380D02*
X116523809Y-92476190D01*
X116857142Y-91952380D01*
X117714285Y-92952380D02*
X117142857Y-92952380D01*
X117428571Y-92952380D02*
X117428571Y-91952380D01*
X117333333Y-92095238D01*
X117238095Y-92190476D01*
X117142857Y-92238095D01*
%TO.C,U3*%
X104488095Y-116142380D02*
X104488095Y-116951904D01*
X104535714Y-117047142D01*
X104583333Y-117094761D01*
X104678571Y-117142380D01*
X104869047Y-117142380D01*
X104964285Y-117094761D01*
X105011904Y-117047142D01*
X105059523Y-116951904D01*
X105059523Y-116142380D01*
X105440476Y-116142380D02*
X106059523Y-116142380D01*
X105726190Y-116523333D01*
X105869047Y-116523333D01*
X105964285Y-116570952D01*
X106011904Y-116618571D01*
X106059523Y-116713809D01*
X106059523Y-116951904D01*
X106011904Y-117047142D01*
X105964285Y-117094761D01*
X105869047Y-117142380D01*
X105583333Y-117142380D01*
X105488095Y-117094761D01*
X105440476Y-117047142D01*
%TO.C,U2*%
X127488095Y-116142380D02*
X127488095Y-116951904D01*
X127535714Y-117047142D01*
X127583333Y-117094761D01*
X127678571Y-117142380D01*
X127869047Y-117142380D01*
X127964285Y-117094761D01*
X128011904Y-117047142D01*
X128059523Y-116951904D01*
X128059523Y-116142380D01*
X128488095Y-116237619D02*
X128535714Y-116190000D01*
X128630952Y-116142380D01*
X128869047Y-116142380D01*
X128964285Y-116190000D01*
X129011904Y-116237619D01*
X129059523Y-116332857D01*
X129059523Y-116428095D01*
X129011904Y-116570952D01*
X128440476Y-117142380D01*
X129059523Y-117142380D01*
%TO.C,U1*%
X140738095Y-104262380D02*
X140738095Y-105071904D01*
X140785714Y-105167142D01*
X140833333Y-105214761D01*
X140928571Y-105262380D01*
X141119047Y-105262380D01*
X141214285Y-105214761D01*
X141261904Y-105167142D01*
X141309523Y-105071904D01*
X141309523Y-104262380D01*
X142309523Y-105262380D02*
X141738095Y-105262380D01*
X142023809Y-105262380D02*
X142023809Y-104262380D01*
X141928571Y-104405238D01*
X141833333Y-104500476D01*
X141738095Y-104548095D01*
%TO.C,RV1*%
X161154761Y-125452380D02*
X160821428Y-124976190D01*
X160583333Y-125452380D02*
X160583333Y-124452380D01*
X160964285Y-124452380D01*
X161059523Y-124500000D01*
X161107142Y-124547619D01*
X161154761Y-124642857D01*
X161154761Y-124785714D01*
X161107142Y-124880952D01*
X161059523Y-124928571D01*
X160964285Y-124976190D01*
X160583333Y-124976190D01*
X161440476Y-124452380D02*
X161773809Y-125452380D01*
X162107142Y-124452380D01*
X162964285Y-125452380D02*
X162392857Y-125452380D01*
X162678571Y-125452380D02*
X162678571Y-124452380D01*
X162583333Y-124595238D01*
X162488095Y-124690476D01*
X162392857Y-124738095D01*
%TO.C,R12*%
X151107142Y-109202380D02*
X150773809Y-108726190D01*
X150535714Y-109202380D02*
X150535714Y-108202380D01*
X150916666Y-108202380D01*
X151011904Y-108250000D01*
X151059523Y-108297619D01*
X151107142Y-108392857D01*
X151107142Y-108535714D01*
X151059523Y-108630952D01*
X151011904Y-108678571D01*
X150916666Y-108726190D01*
X150535714Y-108726190D01*
X152059523Y-109202380D02*
X151488095Y-109202380D01*
X151773809Y-109202380D02*
X151773809Y-108202380D01*
X151678571Y-108345238D01*
X151583333Y-108440476D01*
X151488095Y-108488095D01*
X152440476Y-108297619D02*
X152488095Y-108250000D01*
X152583333Y-108202380D01*
X152821428Y-108202380D01*
X152916666Y-108250000D01*
X152964285Y-108297619D01*
X153011904Y-108392857D01*
X153011904Y-108488095D01*
X152964285Y-108630952D01*
X152392857Y-109202380D01*
X153011904Y-109202380D01*
%TO.C,R11*%
X151107142Y-122702380D02*
X150773809Y-122226190D01*
X150535714Y-122702380D02*
X150535714Y-121702380D01*
X150916666Y-121702380D01*
X151011904Y-121750000D01*
X151059523Y-121797619D01*
X151107142Y-121892857D01*
X151107142Y-122035714D01*
X151059523Y-122130952D01*
X151011904Y-122178571D01*
X150916666Y-122226190D01*
X150535714Y-122226190D01*
X152059523Y-122702380D02*
X151488095Y-122702380D01*
X151773809Y-122702380D02*
X151773809Y-121702380D01*
X151678571Y-121845238D01*
X151583333Y-121940476D01*
X151488095Y-121988095D01*
X153011904Y-122702380D02*
X152440476Y-122702380D01*
X152726190Y-122702380D02*
X152726190Y-121702380D01*
X152630952Y-121845238D01*
X152535714Y-121940476D01*
X152440476Y-121988095D01*
%TO.C,R10*%
X143607142Y-88702380D02*
X143273809Y-88226190D01*
X143035714Y-88702380D02*
X143035714Y-87702380D01*
X143416666Y-87702380D01*
X143511904Y-87750000D01*
X143559523Y-87797619D01*
X143607142Y-87892857D01*
X143607142Y-88035714D01*
X143559523Y-88130952D01*
X143511904Y-88178571D01*
X143416666Y-88226190D01*
X143035714Y-88226190D01*
X144559523Y-88702380D02*
X143988095Y-88702380D01*
X144273809Y-88702380D02*
X144273809Y-87702380D01*
X144178571Y-87845238D01*
X144083333Y-87940476D01*
X143988095Y-87988095D01*
X145178571Y-87702380D02*
X145273809Y-87702380D01*
X145369047Y-87750000D01*
X145416666Y-87797619D01*
X145464285Y-87892857D01*
X145511904Y-88083333D01*
X145511904Y-88321428D01*
X145464285Y-88511904D01*
X145416666Y-88607142D01*
X145369047Y-88654761D01*
X145273809Y-88702380D01*
X145178571Y-88702380D01*
X145083333Y-88654761D01*
X145035714Y-88607142D01*
X144988095Y-88511904D01*
X144940476Y-88321428D01*
X144940476Y-88083333D01*
X144988095Y-87892857D01*
X145035714Y-87797619D01*
X145083333Y-87750000D01*
X145178571Y-87702380D01*
%TO.C,R9*%
X137583333Y-134952380D02*
X137250000Y-134476190D01*
X137011904Y-134952380D02*
X137011904Y-133952380D01*
X137392857Y-133952380D01*
X137488095Y-134000000D01*
X137535714Y-134047619D01*
X137583333Y-134142857D01*
X137583333Y-134285714D01*
X137535714Y-134380952D01*
X137488095Y-134428571D01*
X137392857Y-134476190D01*
X137011904Y-134476190D01*
X138059523Y-134952380D02*
X138250000Y-134952380D01*
X138345238Y-134904761D01*
X138392857Y-134857142D01*
X138488095Y-134714285D01*
X138535714Y-134523809D01*
X138535714Y-134142857D01*
X138488095Y-134047619D01*
X138440476Y-134000000D01*
X138345238Y-133952380D01*
X138154761Y-133952380D01*
X138059523Y-134000000D01*
X138011904Y-134047619D01*
X137964285Y-134142857D01*
X137964285Y-134380952D01*
X138011904Y-134476190D01*
X138059523Y-134523809D01*
X138154761Y-134571428D01*
X138345238Y-134571428D01*
X138440476Y-134523809D01*
X138488095Y-134476190D01*
X138535714Y-134380952D01*
%TO.C,R8*%
X134333333Y-134952380D02*
X134000000Y-134476190D01*
X133761904Y-134952380D02*
X133761904Y-133952380D01*
X134142857Y-133952380D01*
X134238095Y-134000000D01*
X134285714Y-134047619D01*
X134333333Y-134142857D01*
X134333333Y-134285714D01*
X134285714Y-134380952D01*
X134238095Y-134428571D01*
X134142857Y-134476190D01*
X133761904Y-134476190D01*
X134904761Y-134380952D02*
X134809523Y-134333333D01*
X134761904Y-134285714D01*
X134714285Y-134190476D01*
X134714285Y-134142857D01*
X134761904Y-134047619D01*
X134809523Y-134000000D01*
X134904761Y-133952380D01*
X135095238Y-133952380D01*
X135190476Y-134000000D01*
X135238095Y-134047619D01*
X135285714Y-134142857D01*
X135285714Y-134190476D01*
X135238095Y-134285714D01*
X135190476Y-134333333D01*
X135095238Y-134380952D01*
X134904761Y-134380952D01*
X134809523Y-134428571D01*
X134761904Y-134476190D01*
X134714285Y-134571428D01*
X134714285Y-134761904D01*
X134761904Y-134857142D01*
X134809523Y-134904761D01*
X134904761Y-134952380D01*
X135095238Y-134952380D01*
X135190476Y-134904761D01*
X135238095Y-134857142D01*
X135285714Y-134761904D01*
X135285714Y-134571428D01*
X135238095Y-134476190D01*
X135190476Y-134428571D01*
X135095238Y-134380952D01*
%TO.C,R7*%
X131083333Y-134952380D02*
X130750000Y-134476190D01*
X130511904Y-134952380D02*
X130511904Y-133952380D01*
X130892857Y-133952380D01*
X130988095Y-134000000D01*
X131035714Y-134047619D01*
X131083333Y-134142857D01*
X131083333Y-134285714D01*
X131035714Y-134380952D01*
X130988095Y-134428571D01*
X130892857Y-134476190D01*
X130511904Y-134476190D01*
X131416666Y-133952380D02*
X132083333Y-133952380D01*
X131654761Y-134952380D01*
%TO.C,R6*%
X126583333Y-134952380D02*
X126250000Y-134476190D01*
X126011904Y-134952380D02*
X126011904Y-133952380D01*
X126392857Y-133952380D01*
X126488095Y-134000000D01*
X126535714Y-134047619D01*
X126583333Y-134142857D01*
X126583333Y-134285714D01*
X126535714Y-134380952D01*
X126488095Y-134428571D01*
X126392857Y-134476190D01*
X126011904Y-134476190D01*
X127440476Y-133952380D02*
X127250000Y-133952380D01*
X127154761Y-134000000D01*
X127107142Y-134047619D01*
X127011904Y-134190476D01*
X126964285Y-134380952D01*
X126964285Y-134761904D01*
X127011904Y-134857142D01*
X127059523Y-134904761D01*
X127154761Y-134952380D01*
X127345238Y-134952380D01*
X127440476Y-134904761D01*
X127488095Y-134857142D01*
X127535714Y-134761904D01*
X127535714Y-134523809D01*
X127488095Y-134428571D01*
X127440476Y-134380952D01*
X127345238Y-134333333D01*
X127154761Y-134333333D01*
X127059523Y-134380952D01*
X127011904Y-134428571D01*
X126964285Y-134523809D01*
%TO.C,R5*%
X123583333Y-134952380D02*
X123250000Y-134476190D01*
X123011904Y-134952380D02*
X123011904Y-133952380D01*
X123392857Y-133952380D01*
X123488095Y-134000000D01*
X123535714Y-134047619D01*
X123583333Y-134142857D01*
X123583333Y-134285714D01*
X123535714Y-134380952D01*
X123488095Y-134428571D01*
X123392857Y-134476190D01*
X123011904Y-134476190D01*
X124488095Y-133952380D02*
X124011904Y-133952380D01*
X123964285Y-134428571D01*
X124011904Y-134380952D01*
X124107142Y-134333333D01*
X124345238Y-134333333D01*
X124440476Y-134380952D01*
X124488095Y-134428571D01*
X124535714Y-134523809D01*
X124535714Y-134761904D01*
X124488095Y-134857142D01*
X124440476Y-134904761D01*
X124345238Y-134952380D01*
X124107142Y-134952380D01*
X124011904Y-134904761D01*
X123964285Y-134857142D01*
%TO.C,R4*%
X120533333Y-134852380D02*
X120200000Y-134376190D01*
X119961904Y-134852380D02*
X119961904Y-133852380D01*
X120342857Y-133852380D01*
X120438095Y-133900000D01*
X120485714Y-133947619D01*
X120533333Y-134042857D01*
X120533333Y-134185714D01*
X120485714Y-134280952D01*
X120438095Y-134328571D01*
X120342857Y-134376190D01*
X119961904Y-134376190D01*
X121390476Y-134185714D02*
X121390476Y-134852380D01*
X121152380Y-133804761D02*
X120914285Y-134519047D01*
X121533333Y-134519047D01*
%TO.C,R3*%
X116183333Y-134952380D02*
X115850000Y-134476190D01*
X115611904Y-134952380D02*
X115611904Y-133952380D01*
X115992857Y-133952380D01*
X116088095Y-134000000D01*
X116135714Y-134047619D01*
X116183333Y-134142857D01*
X116183333Y-134285714D01*
X116135714Y-134380952D01*
X116088095Y-134428571D01*
X115992857Y-134476190D01*
X115611904Y-134476190D01*
X116516666Y-133952380D02*
X117135714Y-133952380D01*
X116802380Y-134333333D01*
X116945238Y-134333333D01*
X117040476Y-134380952D01*
X117088095Y-134428571D01*
X117135714Y-134523809D01*
X117135714Y-134761904D01*
X117088095Y-134857142D01*
X117040476Y-134904761D01*
X116945238Y-134952380D01*
X116659523Y-134952380D01*
X116564285Y-134904761D01*
X116516666Y-134857142D01*
%TO.C,R2*%
X112833333Y-134952380D02*
X112500000Y-134476190D01*
X112261904Y-134952380D02*
X112261904Y-133952380D01*
X112642857Y-133952380D01*
X112738095Y-134000000D01*
X112785714Y-134047619D01*
X112833333Y-134142857D01*
X112833333Y-134285714D01*
X112785714Y-134380952D01*
X112738095Y-134428571D01*
X112642857Y-134476190D01*
X112261904Y-134476190D01*
X113214285Y-134047619D02*
X113261904Y-134000000D01*
X113357142Y-133952380D01*
X113595238Y-133952380D01*
X113690476Y-134000000D01*
X113738095Y-134047619D01*
X113785714Y-134142857D01*
X113785714Y-134238095D01*
X113738095Y-134380952D01*
X113166666Y-134952380D01*
X113785714Y-134952380D01*
%TO.C,R1*%
X109783333Y-134952380D02*
X109450000Y-134476190D01*
X109211904Y-134952380D02*
X109211904Y-133952380D01*
X109592857Y-133952380D01*
X109688095Y-134000000D01*
X109735714Y-134047619D01*
X109783333Y-134142857D01*
X109783333Y-134285714D01*
X109735714Y-134380952D01*
X109688095Y-134428571D01*
X109592857Y-134476190D01*
X109211904Y-134476190D01*
X110735714Y-134952380D02*
X110164285Y-134952380D01*
X110450000Y-134952380D02*
X110450000Y-133952380D01*
X110354761Y-134095238D01*
X110259523Y-134190476D01*
X110164285Y-134238095D01*
%TO.C,Q1*%
X142344761Y-102007619D02*
X142249523Y-101960000D01*
X142154285Y-101864761D01*
X142011428Y-101721904D01*
X141916190Y-101674285D01*
X141820952Y-101674285D01*
X141868571Y-101912380D02*
X141773333Y-101864761D01*
X141678095Y-101769523D01*
X141630476Y-101579047D01*
X141630476Y-101245714D01*
X141678095Y-101055238D01*
X141773333Y-100960000D01*
X141868571Y-100912380D01*
X142059047Y-100912380D01*
X142154285Y-100960000D01*
X142249523Y-101055238D01*
X142297142Y-101245714D01*
X142297142Y-101579047D01*
X142249523Y-101769523D01*
X142154285Y-101864761D01*
X142059047Y-101912380D01*
X141868571Y-101912380D01*
X143249523Y-101912380D02*
X142678095Y-101912380D01*
X142963809Y-101912380D02*
X142963809Y-100912380D01*
X142868571Y-101055238D01*
X142773333Y-101150476D01*
X142678095Y-101198095D01*
%TO.C,J10*%
X130190476Y-88702380D02*
X130190476Y-89416666D01*
X130142857Y-89559523D01*
X130047619Y-89654761D01*
X129904761Y-89702380D01*
X129809523Y-89702380D01*
X131190476Y-89702380D02*
X130619047Y-89702380D01*
X130904761Y-89702380D02*
X130904761Y-88702380D01*
X130809523Y-88845238D01*
X130714285Y-88940476D01*
X130619047Y-88988095D01*
X131809523Y-88702380D02*
X131904761Y-88702380D01*
X132000000Y-88750000D01*
X132047619Y-88797619D01*
X132095238Y-88892857D01*
X132142857Y-89083333D01*
X132142857Y-89321428D01*
X132095238Y-89511904D01*
X132047619Y-89607142D01*
X132000000Y-89654761D01*
X131904761Y-89702380D01*
X131809523Y-89702380D01*
X131714285Y-89654761D01*
X131666666Y-89607142D01*
X131619047Y-89511904D01*
X131571428Y-89321428D01*
X131571428Y-89083333D01*
X131619047Y-88892857D01*
X131666666Y-88797619D01*
X131714285Y-88750000D01*
X131809523Y-88702380D01*
%TO.C,J9*%
X127166666Y-88702380D02*
X127166666Y-89416666D01*
X127119047Y-89559523D01*
X127023809Y-89654761D01*
X126880952Y-89702380D01*
X126785714Y-89702380D01*
X127690476Y-89702380D02*
X127880952Y-89702380D01*
X127976190Y-89654761D01*
X128023809Y-89607142D01*
X128119047Y-89464285D01*
X128166666Y-89273809D01*
X128166666Y-88892857D01*
X128119047Y-88797619D01*
X128071428Y-88750000D01*
X127976190Y-88702380D01*
X127785714Y-88702380D01*
X127690476Y-88750000D01*
X127642857Y-88797619D01*
X127595238Y-88892857D01*
X127595238Y-89130952D01*
X127642857Y-89226190D01*
X127690476Y-89273809D01*
X127785714Y-89321428D01*
X127976190Y-89321428D01*
X128071428Y-89273809D01*
X128119047Y-89226190D01*
X128166666Y-89130952D01*
%TO.C,J8*%
X158166666Y-82202380D02*
X158166666Y-82916666D01*
X158119047Y-83059523D01*
X158023809Y-83154761D01*
X157880952Y-83202380D01*
X157785714Y-83202380D01*
X158785714Y-82630952D02*
X158690476Y-82583333D01*
X158642857Y-82535714D01*
X158595238Y-82440476D01*
X158595238Y-82392857D01*
X158642857Y-82297619D01*
X158690476Y-82250000D01*
X158785714Y-82202380D01*
X158976190Y-82202380D01*
X159071428Y-82250000D01*
X159119047Y-82297619D01*
X159166666Y-82392857D01*
X159166666Y-82440476D01*
X159119047Y-82535714D01*
X159071428Y-82583333D01*
X158976190Y-82630952D01*
X158785714Y-82630952D01*
X158690476Y-82678571D01*
X158642857Y-82726190D01*
X158595238Y-82821428D01*
X158595238Y-83011904D01*
X158642857Y-83107142D01*
X158690476Y-83154761D01*
X158785714Y-83202380D01*
X158976190Y-83202380D01*
X159071428Y-83154761D01*
X159119047Y-83107142D01*
X159166666Y-83011904D01*
X159166666Y-82821428D01*
X159119047Y-82726190D01*
X159071428Y-82678571D01*
X158976190Y-82630952D01*
%TO.C,J7*%
X87916666Y-118452380D02*
X87916666Y-119166666D01*
X87869047Y-119309523D01*
X87773809Y-119404761D01*
X87630952Y-119452380D01*
X87535714Y-119452380D01*
X88297619Y-118452380D02*
X88964285Y-118452380D01*
X88535714Y-119452380D01*
%TO.C,J6*%
X160666666Y-93202380D02*
X160666666Y-93916666D01*
X160619047Y-94059523D01*
X160523809Y-94154761D01*
X160380952Y-94202380D01*
X160285714Y-94202380D01*
X161571428Y-93202380D02*
X161380952Y-93202380D01*
X161285714Y-93250000D01*
X161238095Y-93297619D01*
X161142857Y-93440476D01*
X161095238Y-93630952D01*
X161095238Y-94011904D01*
X161142857Y-94107142D01*
X161190476Y-94154761D01*
X161285714Y-94202380D01*
X161476190Y-94202380D01*
X161571428Y-94154761D01*
X161619047Y-94107142D01*
X161666666Y-94011904D01*
X161666666Y-93773809D01*
X161619047Y-93678571D01*
X161571428Y-93630952D01*
X161476190Y-93583333D01*
X161285714Y-93583333D01*
X161190476Y-93630952D01*
X161142857Y-93678571D01*
X161095238Y-93773809D01*
%TO.C,J5*%
X142416666Y-133452380D02*
X142416666Y-134166666D01*
X142369047Y-134309523D01*
X142273809Y-134404761D01*
X142130952Y-134452380D01*
X142035714Y-134452380D01*
X143369047Y-133452380D02*
X142892857Y-133452380D01*
X142845238Y-133928571D01*
X142892857Y-133880952D01*
X142988095Y-133833333D01*
X143226190Y-133833333D01*
X143321428Y-133880952D01*
X143369047Y-133928571D01*
X143416666Y-134023809D01*
X143416666Y-134261904D01*
X143369047Y-134357142D01*
X143321428Y-134404761D01*
X143226190Y-134452380D01*
X142988095Y-134452380D01*
X142892857Y-134404761D01*
X142845238Y-134357142D01*
%TO.C,J4*%
X87916666Y-99202380D02*
X87916666Y-99916666D01*
X87869047Y-100059523D01*
X87773809Y-100154761D01*
X87630952Y-100202380D01*
X87535714Y-100202380D01*
X88821428Y-99535714D02*
X88821428Y-100202380D01*
X88583333Y-99154761D02*
X88345238Y-99869047D01*
X88964285Y-99869047D01*
%TO.C,J3*%
X98666666Y-133452380D02*
X98666666Y-134166666D01*
X98619047Y-134309523D01*
X98523809Y-134404761D01*
X98380952Y-134452380D01*
X98285714Y-134452380D01*
X99047619Y-133452380D02*
X99666666Y-133452380D01*
X99333333Y-133833333D01*
X99476190Y-133833333D01*
X99571428Y-133880952D01*
X99619047Y-133928571D01*
X99666666Y-134023809D01*
X99666666Y-134261904D01*
X99619047Y-134357142D01*
X99571428Y-134404761D01*
X99476190Y-134452380D01*
X99190476Y-134452380D01*
X99095238Y-134404761D01*
X99047619Y-134357142D01*
%TO.C,J2*%
X97416666Y-109702380D02*
X97416666Y-110416666D01*
X97369047Y-110559523D01*
X97273809Y-110654761D01*
X97130952Y-110702380D01*
X97035714Y-110702380D01*
X97845238Y-109797619D02*
X97892857Y-109750000D01*
X97988095Y-109702380D01*
X98226190Y-109702380D01*
X98321428Y-109750000D01*
X98369047Y-109797619D01*
X98416666Y-109892857D01*
X98416666Y-109988095D01*
X98369047Y-110130952D01*
X97797619Y-110702380D01*
X98416666Y-110702380D01*
%TO.C,J1*%
X137666666Y-88702380D02*
X137666666Y-89416666D01*
X137619047Y-89559523D01*
X137523809Y-89654761D01*
X137380952Y-89702380D01*
X137285714Y-89702380D01*
X138666666Y-89702380D02*
X138095238Y-89702380D01*
X138380952Y-89702380D02*
X138380952Y-88702380D01*
X138285714Y-88845238D01*
X138190476Y-88940476D01*
X138095238Y-88988095D01*
%TO.C,D2*%
X150011904Y-96202380D02*
X150011904Y-95202380D01*
X150250000Y-95202380D01*
X150392857Y-95250000D01*
X150488095Y-95345238D01*
X150535714Y-95440476D01*
X150583333Y-95630952D01*
X150583333Y-95773809D01*
X150535714Y-95964285D01*
X150488095Y-96059523D01*
X150392857Y-96154761D01*
X150250000Y-96202380D01*
X150011904Y-96202380D01*
X150964285Y-95297619D02*
X151011904Y-95250000D01*
X151107142Y-95202380D01*
X151345238Y-95202380D01*
X151440476Y-95250000D01*
X151488095Y-95297619D01*
X151535714Y-95392857D01*
X151535714Y-95488095D01*
X151488095Y-95630952D01*
X150916666Y-96202380D01*
X151535714Y-96202380D01*
%TO.C,D1*%
X141761904Y-96202380D02*
X141761904Y-95202380D01*
X142000000Y-95202380D01*
X142142857Y-95250000D01*
X142238095Y-95345238D01*
X142285714Y-95440476D01*
X142333333Y-95630952D01*
X142333333Y-95773809D01*
X142285714Y-95964285D01*
X142238095Y-96059523D01*
X142142857Y-96154761D01*
X142000000Y-96202380D01*
X141761904Y-96202380D01*
X143285714Y-96202380D02*
X142714285Y-96202380D01*
X143000000Y-96202380D02*
X143000000Y-95202380D01*
X142904761Y-95345238D01*
X142809523Y-95440476D01*
X142714285Y-95488095D01*
%TO.C,C17*%
X141357142Y-112607142D02*
X141309523Y-112654761D01*
X141166666Y-112702380D01*
X141071428Y-112702380D01*
X140928571Y-112654761D01*
X140833333Y-112559523D01*
X140785714Y-112464285D01*
X140738095Y-112273809D01*
X140738095Y-112130952D01*
X140785714Y-111940476D01*
X140833333Y-111845238D01*
X140928571Y-111750000D01*
X141071428Y-111702380D01*
X141166666Y-111702380D01*
X141309523Y-111750000D01*
X141357142Y-111797619D01*
X142309523Y-112702380D02*
X141738095Y-112702380D01*
X142023809Y-112702380D02*
X142023809Y-111702380D01*
X141928571Y-111845238D01*
X141833333Y-111940476D01*
X141738095Y-111988095D01*
X142642857Y-111702380D02*
X143309523Y-111702380D01*
X142880952Y-112702380D01*
%TO.C,C16*%
X145357142Y-122607142D02*
X145309523Y-122654761D01*
X145166666Y-122702380D01*
X145071428Y-122702380D01*
X144928571Y-122654761D01*
X144833333Y-122559523D01*
X144785714Y-122464285D01*
X144738095Y-122273809D01*
X144738095Y-122130952D01*
X144785714Y-121940476D01*
X144833333Y-121845238D01*
X144928571Y-121750000D01*
X145071428Y-121702380D01*
X145166666Y-121702380D01*
X145309523Y-121750000D01*
X145357142Y-121797619D01*
X146309523Y-122702380D02*
X145738095Y-122702380D01*
X146023809Y-122702380D02*
X146023809Y-121702380D01*
X145928571Y-121845238D01*
X145833333Y-121940476D01*
X145738095Y-121988095D01*
X147166666Y-121702380D02*
X146976190Y-121702380D01*
X146880952Y-121750000D01*
X146833333Y-121797619D01*
X146738095Y-121940476D01*
X146690476Y-122130952D01*
X146690476Y-122511904D01*
X146738095Y-122607142D01*
X146785714Y-122654761D01*
X146880952Y-122702380D01*
X147071428Y-122702380D01*
X147166666Y-122654761D01*
X147214285Y-122607142D01*
X147261904Y-122511904D01*
X147261904Y-122273809D01*
X147214285Y-122178571D01*
X147166666Y-122130952D01*
X147071428Y-122083333D01*
X146880952Y-122083333D01*
X146785714Y-122130952D01*
X146738095Y-122178571D01*
X146690476Y-122273809D01*
%TO.C,C15*%
X97607142Y-84607142D02*
X97559523Y-84654761D01*
X97416666Y-84702380D01*
X97321428Y-84702380D01*
X97178571Y-84654761D01*
X97083333Y-84559523D01*
X97035714Y-84464285D01*
X96988095Y-84273809D01*
X96988095Y-84130952D01*
X97035714Y-83940476D01*
X97083333Y-83845238D01*
X97178571Y-83750000D01*
X97321428Y-83702380D01*
X97416666Y-83702380D01*
X97559523Y-83750000D01*
X97607142Y-83797619D01*
X98559523Y-84702380D02*
X97988095Y-84702380D01*
X98273809Y-84702380D02*
X98273809Y-83702380D01*
X98178571Y-83845238D01*
X98083333Y-83940476D01*
X97988095Y-83988095D01*
X99464285Y-83702380D02*
X98988095Y-83702380D01*
X98940476Y-84178571D01*
X98988095Y-84130952D01*
X99083333Y-84083333D01*
X99321428Y-84083333D01*
X99416666Y-84130952D01*
X99464285Y-84178571D01*
X99511904Y-84273809D01*
X99511904Y-84511904D01*
X99464285Y-84607142D01*
X99416666Y-84654761D01*
X99321428Y-84702380D01*
X99083333Y-84702380D01*
X98988095Y-84654761D01*
X98940476Y-84607142D01*
%TO.C,C14*%
X154857142Y-129407142D02*
X154809523Y-129454761D01*
X154666666Y-129502380D01*
X154571428Y-129502380D01*
X154428571Y-129454761D01*
X154333333Y-129359523D01*
X154285714Y-129264285D01*
X154238095Y-129073809D01*
X154238095Y-128930952D01*
X154285714Y-128740476D01*
X154333333Y-128645238D01*
X154428571Y-128550000D01*
X154571428Y-128502380D01*
X154666666Y-128502380D01*
X154809523Y-128550000D01*
X154857142Y-128597619D01*
X155809523Y-129502380D02*
X155238095Y-129502380D01*
X155523809Y-129502380D02*
X155523809Y-128502380D01*
X155428571Y-128645238D01*
X155333333Y-128740476D01*
X155238095Y-128788095D01*
X156666666Y-128835714D02*
X156666666Y-129502380D01*
X156428571Y-128454761D02*
X156190476Y-129169047D01*
X156809523Y-129169047D01*
%TO.C,C13*%
X118857142Y-119607142D02*
X118809523Y-119654761D01*
X118666666Y-119702380D01*
X118571428Y-119702380D01*
X118428571Y-119654761D01*
X118333333Y-119559523D01*
X118285714Y-119464285D01*
X118238095Y-119273809D01*
X118238095Y-119130952D01*
X118285714Y-118940476D01*
X118333333Y-118845238D01*
X118428571Y-118750000D01*
X118571428Y-118702380D01*
X118666666Y-118702380D01*
X118809523Y-118750000D01*
X118857142Y-118797619D01*
X119809523Y-119702380D02*
X119238095Y-119702380D01*
X119523809Y-119702380D02*
X119523809Y-118702380D01*
X119428571Y-118845238D01*
X119333333Y-118940476D01*
X119238095Y-118988095D01*
X120142857Y-118702380D02*
X120761904Y-118702380D01*
X120428571Y-119083333D01*
X120571428Y-119083333D01*
X120666666Y-119130952D01*
X120714285Y-119178571D01*
X120761904Y-119273809D01*
X120761904Y-119511904D01*
X120714285Y-119607142D01*
X120666666Y-119654761D01*
X120571428Y-119702380D01*
X120285714Y-119702380D01*
X120190476Y-119654761D01*
X120142857Y-119607142D01*
%TO.C,C12*%
X97607142Y-76607142D02*
X97559523Y-76654761D01*
X97416666Y-76702380D01*
X97321428Y-76702380D01*
X97178571Y-76654761D01*
X97083333Y-76559523D01*
X97035714Y-76464285D01*
X96988095Y-76273809D01*
X96988095Y-76130952D01*
X97035714Y-75940476D01*
X97083333Y-75845238D01*
X97178571Y-75750000D01*
X97321428Y-75702380D01*
X97416666Y-75702380D01*
X97559523Y-75750000D01*
X97607142Y-75797619D01*
X98559523Y-76702380D02*
X97988095Y-76702380D01*
X98273809Y-76702380D02*
X98273809Y-75702380D01*
X98178571Y-75845238D01*
X98083333Y-75940476D01*
X97988095Y-75988095D01*
X98940476Y-75797619D02*
X98988095Y-75750000D01*
X99083333Y-75702380D01*
X99321428Y-75702380D01*
X99416666Y-75750000D01*
X99464285Y-75797619D01*
X99511904Y-75892857D01*
X99511904Y-75988095D01*
X99464285Y-76130952D01*
X98892857Y-76702380D01*
X99511904Y-76702380D01*
%TO.C,C11*%
X118857142Y-116607142D02*
X118809523Y-116654761D01*
X118666666Y-116702380D01*
X118571428Y-116702380D01*
X118428571Y-116654761D01*
X118333333Y-116559523D01*
X118285714Y-116464285D01*
X118238095Y-116273809D01*
X118238095Y-116130952D01*
X118285714Y-115940476D01*
X118333333Y-115845238D01*
X118428571Y-115750000D01*
X118571428Y-115702380D01*
X118666666Y-115702380D01*
X118809523Y-115750000D01*
X118857142Y-115797619D01*
X119809523Y-116702380D02*
X119238095Y-116702380D01*
X119523809Y-116702380D02*
X119523809Y-115702380D01*
X119428571Y-115845238D01*
X119333333Y-115940476D01*
X119238095Y-115988095D01*
X120761904Y-116702380D02*
X120190476Y-116702380D01*
X120476190Y-116702380D02*
X120476190Y-115702380D01*
X120380952Y-115845238D01*
X120285714Y-115940476D01*
X120190476Y-115988095D01*
%TO.C,C10*%
X118857142Y-113857142D02*
X118809523Y-113904761D01*
X118666666Y-113952380D01*
X118571428Y-113952380D01*
X118428571Y-113904761D01*
X118333333Y-113809523D01*
X118285714Y-113714285D01*
X118238095Y-113523809D01*
X118238095Y-113380952D01*
X118285714Y-113190476D01*
X118333333Y-113095238D01*
X118428571Y-113000000D01*
X118571428Y-112952380D01*
X118666666Y-112952380D01*
X118809523Y-113000000D01*
X118857142Y-113047619D01*
X119809523Y-113952380D02*
X119238095Y-113952380D01*
X119523809Y-113952380D02*
X119523809Y-112952380D01*
X119428571Y-113095238D01*
X119333333Y-113190476D01*
X119238095Y-113238095D01*
X120428571Y-112952380D02*
X120523809Y-112952380D01*
X120619047Y-113000000D01*
X120666666Y-113047619D01*
X120714285Y-113142857D01*
X120761904Y-113333333D01*
X120761904Y-113571428D01*
X120714285Y-113761904D01*
X120666666Y-113857142D01*
X120619047Y-113904761D01*
X120523809Y-113952380D01*
X120428571Y-113952380D01*
X120333333Y-113904761D01*
X120285714Y-113857142D01*
X120238095Y-113761904D01*
X120190476Y-113571428D01*
X120190476Y-113333333D01*
X120238095Y-113142857D01*
X120285714Y-113047619D01*
X120333333Y-113000000D01*
X120428571Y-112952380D01*
%TO.C,C9*%
X86833333Y-86357142D02*
X86785714Y-86404761D01*
X86642857Y-86452380D01*
X86547619Y-86452380D01*
X86404761Y-86404761D01*
X86309523Y-86309523D01*
X86261904Y-86214285D01*
X86214285Y-86023809D01*
X86214285Y-85880952D01*
X86261904Y-85690476D01*
X86309523Y-85595238D01*
X86404761Y-85500000D01*
X86547619Y-85452380D01*
X86642857Y-85452380D01*
X86785714Y-85500000D01*
X86833333Y-85547619D01*
X87309523Y-86452380D02*
X87500000Y-86452380D01*
X87595238Y-86404761D01*
X87642857Y-86357142D01*
X87738095Y-86214285D01*
X87785714Y-86023809D01*
X87785714Y-85642857D01*
X87738095Y-85547619D01*
X87690476Y-85500000D01*
X87595238Y-85452380D01*
X87404761Y-85452380D01*
X87309523Y-85500000D01*
X87261904Y-85547619D01*
X87214285Y-85642857D01*
X87214285Y-85880952D01*
X87261904Y-85976190D01*
X87309523Y-86023809D01*
X87404761Y-86071428D01*
X87595238Y-86071428D01*
X87690476Y-86023809D01*
X87738095Y-85976190D01*
X87785714Y-85880952D01*
%TO.C,C8*%
X97833333Y-119857142D02*
X97785714Y-119904761D01*
X97642857Y-119952380D01*
X97547619Y-119952380D01*
X97404761Y-119904761D01*
X97309523Y-119809523D01*
X97261904Y-119714285D01*
X97214285Y-119523809D01*
X97214285Y-119380952D01*
X97261904Y-119190476D01*
X97309523Y-119095238D01*
X97404761Y-119000000D01*
X97547619Y-118952380D01*
X97642857Y-118952380D01*
X97785714Y-119000000D01*
X97833333Y-119047619D01*
X98404761Y-119380952D02*
X98309523Y-119333333D01*
X98261904Y-119285714D01*
X98214285Y-119190476D01*
X98214285Y-119142857D01*
X98261904Y-119047619D01*
X98309523Y-119000000D01*
X98404761Y-118952380D01*
X98595238Y-118952380D01*
X98690476Y-119000000D01*
X98738095Y-119047619D01*
X98785714Y-119142857D01*
X98785714Y-119190476D01*
X98738095Y-119285714D01*
X98690476Y-119333333D01*
X98595238Y-119380952D01*
X98404761Y-119380952D01*
X98309523Y-119428571D01*
X98261904Y-119476190D01*
X98214285Y-119571428D01*
X98214285Y-119761904D01*
X98261904Y-119857142D01*
X98309523Y-119904761D01*
X98404761Y-119952380D01*
X98595238Y-119952380D01*
X98690476Y-119904761D01*
X98738095Y-119857142D01*
X98785714Y-119761904D01*
X98785714Y-119571428D01*
X98738095Y-119476190D01*
X98690476Y-119428571D01*
X98595238Y-119380952D01*
%TO.C,C7*%
X142333333Y-109857142D02*
X142285714Y-109904761D01*
X142142857Y-109952380D01*
X142047619Y-109952380D01*
X141904761Y-109904761D01*
X141809523Y-109809523D01*
X141761904Y-109714285D01*
X141714285Y-109523809D01*
X141714285Y-109380952D01*
X141761904Y-109190476D01*
X141809523Y-109095238D01*
X141904761Y-109000000D01*
X142047619Y-108952380D01*
X142142857Y-108952380D01*
X142285714Y-109000000D01*
X142333333Y-109047619D01*
X142666666Y-108952380D02*
X143333333Y-108952380D01*
X142904761Y-109952380D01*
%TO.C,C6*%
X97833333Y-116857142D02*
X97785714Y-116904761D01*
X97642857Y-116952380D01*
X97547619Y-116952380D01*
X97404761Y-116904761D01*
X97309523Y-116809523D01*
X97261904Y-116714285D01*
X97214285Y-116523809D01*
X97214285Y-116380952D01*
X97261904Y-116190476D01*
X97309523Y-116095238D01*
X97404761Y-116000000D01*
X97547619Y-115952380D01*
X97642857Y-115952380D01*
X97785714Y-116000000D01*
X97833333Y-116047619D01*
X98690476Y-115952380D02*
X98500000Y-115952380D01*
X98404761Y-116000000D01*
X98357142Y-116047619D01*
X98261904Y-116190476D01*
X98214285Y-116380952D01*
X98214285Y-116761904D01*
X98261904Y-116857142D01*
X98309523Y-116904761D01*
X98404761Y-116952380D01*
X98595238Y-116952380D01*
X98690476Y-116904761D01*
X98738095Y-116857142D01*
X98785714Y-116761904D01*
X98785714Y-116523809D01*
X98738095Y-116428571D01*
X98690476Y-116380952D01*
X98595238Y-116333333D01*
X98404761Y-116333333D01*
X98309523Y-116380952D01*
X98261904Y-116428571D01*
X98214285Y-116523809D01*
%TO.C,C5*%
X110833333Y-97857142D02*
X110785714Y-97904761D01*
X110642857Y-97952380D01*
X110547619Y-97952380D01*
X110404761Y-97904761D01*
X110309523Y-97809523D01*
X110261904Y-97714285D01*
X110214285Y-97523809D01*
X110214285Y-97380952D01*
X110261904Y-97190476D01*
X110309523Y-97095238D01*
X110404761Y-97000000D01*
X110547619Y-96952380D01*
X110642857Y-96952380D01*
X110785714Y-97000000D01*
X110833333Y-97047619D01*
X111738095Y-96952380D02*
X111261904Y-96952380D01*
X111214285Y-97428571D01*
X111261904Y-97380952D01*
X111357142Y-97333333D01*
X111595238Y-97333333D01*
X111690476Y-97380952D01*
X111738095Y-97428571D01*
X111785714Y-97523809D01*
X111785714Y-97761904D01*
X111738095Y-97857142D01*
X111690476Y-97904761D01*
X111595238Y-97952380D01*
X111357142Y-97952380D01*
X111261904Y-97904761D01*
X111214285Y-97857142D01*
%TO.C,C4*%
X97833333Y-113857142D02*
X97785714Y-113904761D01*
X97642857Y-113952380D01*
X97547619Y-113952380D01*
X97404761Y-113904761D01*
X97309523Y-113809523D01*
X97261904Y-113714285D01*
X97214285Y-113523809D01*
X97214285Y-113380952D01*
X97261904Y-113190476D01*
X97309523Y-113095238D01*
X97404761Y-113000000D01*
X97547619Y-112952380D01*
X97642857Y-112952380D01*
X97785714Y-113000000D01*
X97833333Y-113047619D01*
X98690476Y-113285714D02*
X98690476Y-113952380D01*
X98452380Y-112904761D02*
X98214285Y-113619047D01*
X98833333Y-113619047D01*
%TO.C,C3*%
X103333333Y-97857142D02*
X103285714Y-97904761D01*
X103142857Y-97952380D01*
X103047619Y-97952380D01*
X102904761Y-97904761D01*
X102809523Y-97809523D01*
X102761904Y-97714285D01*
X102714285Y-97523809D01*
X102714285Y-97380952D01*
X102761904Y-97190476D01*
X102809523Y-97095238D01*
X102904761Y-97000000D01*
X103047619Y-96952380D01*
X103142857Y-96952380D01*
X103285714Y-97000000D01*
X103333333Y-97047619D01*
X103666666Y-96952380D02*
X104285714Y-96952380D01*
X103952380Y-97333333D01*
X104095238Y-97333333D01*
X104190476Y-97380952D01*
X104238095Y-97428571D01*
X104285714Y-97523809D01*
X104285714Y-97761904D01*
X104238095Y-97857142D01*
X104190476Y-97904761D01*
X104095238Y-97952380D01*
X103809523Y-97952380D01*
X103714285Y-97904761D01*
X103666666Y-97857142D01*
%TO.C,C2*%
X98083333Y-92607142D02*
X98035714Y-92654761D01*
X97892857Y-92702380D01*
X97797619Y-92702380D01*
X97654761Y-92654761D01*
X97559523Y-92559523D01*
X97511904Y-92464285D01*
X97464285Y-92273809D01*
X97464285Y-92130952D01*
X97511904Y-91940476D01*
X97559523Y-91845238D01*
X97654761Y-91750000D01*
X97797619Y-91702380D01*
X97892857Y-91702380D01*
X98035714Y-91750000D01*
X98083333Y-91797619D01*
X98464285Y-91797619D02*
X98511904Y-91750000D01*
X98607142Y-91702380D01*
X98845238Y-91702380D01*
X98940476Y-91750000D01*
X98988095Y-91797619D01*
X99035714Y-91892857D01*
X99035714Y-91988095D01*
X98988095Y-92130952D01*
X98416666Y-92702380D01*
X99035714Y-92702380D01*
%TO.C,C1*%
X118333333Y-97857142D02*
X118285714Y-97904761D01*
X118142857Y-97952380D01*
X118047619Y-97952380D01*
X117904761Y-97904761D01*
X117809523Y-97809523D01*
X117761904Y-97714285D01*
X117714285Y-97523809D01*
X117714285Y-97380952D01*
X117761904Y-97190476D01*
X117809523Y-97095238D01*
X117904761Y-97000000D01*
X118047619Y-96952380D01*
X118142857Y-96952380D01*
X118285714Y-97000000D01*
X118333333Y-97047619D01*
X119285714Y-97952380D02*
X118714285Y-97952380D01*
X119000000Y-97952380D02*
X119000000Y-96952380D01*
X118904761Y-97095238D01*
X118809523Y-97190476D01*
X118714285Y-97238095D01*
%TD*%
M02*
