M48
INCH
T1C0.0157
T2C0.0315
T3C0.0354
T4C0.0394
T5C0.0433
T6C0.0512
T7C0.0598
%
G90
G05
T1
X3.7795Y-4.3898
X3.7894Y-4.8819
X4.065Y-4.8819
X4.3307Y-4.1831
X4.872Y-4.0846
X5.2362Y-4.6161
X5.4134Y-4.0846
T2
X3.5236Y-3.3858
X3.622Y-3.3858
X3.8189Y-3.1496
X3.8189Y-3.4646
X3.8189Y-3.7795
X3.9173Y-3.1496
X3.9173Y-3.4646
X3.9173Y-3.7795
X3.9567Y-4.4685
X3.9567Y-4.5866
X3.9567Y-4.7047
X4.0551Y-4.4685
X4.0551Y-4.5866
X4.0551Y-4.7047
X4.1528Y-3.9764
X4.1528Y-4.2764
X4.1732Y-3.8386
X4.2165Y-3.6417
X4.252Y-4.4441
X4.252Y-4.7441
X4.2528Y-3.9764
X4.2528Y-4.2764
X4.2717Y-3.8386
X4.3209Y-4.8969
X4.3209Y-5.1969
X4.352Y-4.4441
X4.352Y-4.7441
X4.3528Y-3.9764
X4.3528Y-4.2764
X4.4094Y-3.6417
X4.4488Y-4.8969
X4.4488Y-5.1969
X4.452Y-4.4441
X4.452Y-4.7441
X4.4528Y-3.9764
X4.4528Y-4.2764
X4.4685Y-3.8386
X4.552Y-4.4441
X4.552Y-4.7441
X4.5528Y-3.9764
X4.5528Y-4.2764
X4.5669Y-3.8386
X4.5768Y-4.8976
X4.5768Y-5.1976
X4.6528Y-3.9764
X4.6528Y-4.2764
X4.7441Y-4.8969
X4.7441Y-5.1969
X4.7528Y-3.9764
X4.7528Y-4.2764
X4.7638Y-3.8386
X4.8228Y-4.4685
X4.8228Y-4.5768
X4.8228Y-4.6949
X4.8528Y-3.9764
X4.8528Y-4.2764
X4.8622Y-3.8386
X4.8681Y-4.8969
X4.8681Y-5.1969
X4.9213Y-4.4685
X4.9213Y-4.5768
X4.9213Y-4.6949
X4.9528Y-3.9764
X4.9528Y-4.2764
X4.9902Y-4.8969
X4.9902Y-5.1969
X5.0528Y-3.9764
X5.0528Y-4.2764
X5.1528Y-3.9764
X5.1528Y-4.2764
X5.1575Y-4.4441
X5.1575Y-4.7441
X5.1673Y-4.8969
X5.1673Y-5.1969
X5.2528Y-3.9764
X5.2528Y-4.2764
X5.2575Y-4.4441
X5.2575Y-4.7441
X5.2953Y-4.8969
X5.2953Y-5.1969
X5.3528Y-3.9764
X5.3528Y-4.2764
X5.3575Y-4.4441
X5.3575Y-4.7441
X5.4232Y-4.8969
X5.4232Y-5.1969
X5.4528Y-3.9764
X5.4528Y-4.2764
X5.4575Y-4.4441
X5.4575Y-4.7441
X5.6791Y-3.076
X5.6791Y-3.376
X5.6988Y-4.311
X5.6988Y-4.4291
X5.6988Y-4.6654
X5.748Y-3.8945
X5.748Y-3.9945
X5.748Y-4.0945
X5.7972Y-4.311
X5.7972Y-4.4291
X5.7972Y-4.6654
X5.9744Y-3.8949
X5.9744Y-4.1949
X5.9744Y-4.4343
X5.9744Y-4.7343
X6.0728Y-4.9902
X6.1713Y-4.9902
T3
X5.6791Y-3.6417
X5.7791Y-3.6417
X5.9728Y-3.6417
X6.0728Y-3.6417
T4
X3.6417Y-4.0551
X3.6417Y-4.1551
X3.6417Y-4.2551
X3.6417Y-4.3551
X3.6417Y-4.4551
X3.6417Y-4.5551
X3.8583Y-4.0354
X3.8583Y-4.1354
X3.8583Y-4.2354
X3.9583Y-4.0354
X3.9583Y-4.1354
X3.9583Y-4.2354
X5.0197Y-3.0906
X5.0197Y-3.1906
X5.0197Y-3.2906
X5.0197Y-3.3906
X5.1673Y-3.0906
X5.1673Y-3.1906
X5.1673Y-3.2906
X5.1673Y-3.3906
X5.4331Y-3.189
X5.4331Y-3.289
X5.4331Y-3.389
T5
X4.1142Y-3.1496
X4.1142Y-3.2496
X4.1142Y-3.3496
T6
X6.2106Y-4.5669
X6.2106Y-4.7638
X6.4075Y-4.6654
T7
X3.563Y-3.5827
X3.563Y-3.7827
X3.8583Y-5.0787
X4.0583Y-5.0787
X5.6693Y-5.0787
X5.8693Y-5.0787
X5.8827Y-3.189
X6.0827Y-3.189
X6.3386Y-3.8421
X6.3386Y-4.0421
X6.3386Y-4.2421
T0
M30
